<svg xmlns="http://www.w3.org/2000/svg" xmlns:xlink="http://www.w3.org/1999/xlink" width="1080" zoomAndPan="magnify" viewBox="0 0 810 809.999993" height="1080" preserveAspectRatio="xMidYMid meet" version="1.0"><defs><clipPath id="8412b2d829"><path d="M 0 0 L 327.996094 0 L 327.996094 327.996094 L 0 327.996094 Z M 0 0 " clip-rule="nonzero"/></clipPath><clipPath id="5aa6ddd716"><path d="M 0 0 L 327.996094 0 L 327.996094 327.996094 L 0 327.996094 Z M 0 0 " clip-rule="nonzero"/></clipPath><clipPath id="b302f8e0e1"><rect x="0" width="328" y="0" height="328"/></clipPath><clipPath id="1cf0013d6f"><path d="M 482.003906 482.003906 L 810 482.003906 L 810 810 L 482.003906 810 Z M 482.003906 482.003906 " clip-rule="nonzero"/></clipPath><clipPath id="76e3588243"><path d="M 0.00390625 0.00390625 L 328 0.00390625 L 328 328 L 0.00390625 328 Z M 0.00390625 0.00390625 " clip-rule="nonzero"/></clipPath><clipPath id="57ebebee53"><rect x="0" width="328" y="0" height="328"/></clipPath><clipPath id="ecbbe37e9f"><path d="M 0 377.742188 L 810 377.742188 L 810 432.257812 L 0 432.257812 Z M 0 377.742188 " clip-rule="nonzero"/></clipPath><clipPath id="6567485840"><path d="M 0 0.742188 L 810 0.742188 L 810 55.257812 L 0 55.257812 Z M 0 0.742188 " clip-rule="nonzero"/></clipPath><clipPath id="40eeabf2fb"><rect x="0" width="810" y="0" height="56"/></clipPath><clipPath id="df7deb6645"><path d="M 377.742188 0 L 432.257812 0 L 432.257812 810 L 377.742188 810 Z M 377.742188 0 " clip-rule="nonzero"/></clipPath><clipPath id="3753badb24"><path d="M 0.742188 0 L 55.257812 0 L 55.257812 810 L 0.742188 810 Z M 0.742188 0 " clip-rule="nonzero"/></clipPath><clipPath id="94cb73f138"><rect x="0" width="56" y="0" height="810"/></clipPath><clipPath id="6eb282cf90"><path d="M 27.257812 755.484375 L 416.367188 755.484375 L 416.367188 810 L 27.257812 810 Z M 27.257812 755.484375 " clip-rule="nonzero"/></clipPath><clipPath id="15ca599481"><path d="M 0.257812 0.484375 L 389.367188 0.484375 L 389.367188 55 L 0.257812 55 Z M 0.257812 0.484375 " clip-rule="nonzero"/></clipPath><clipPath id="97456c57e8"><rect x="0" width="390" y="0" height="55"/></clipPath><clipPath id="867764ea7f"><path d="M 420.886719 0 L 810 0 L 810 54.515625 L 420.886719 54.515625 Z M 420.886719 0 " clip-rule="nonzero"/></clipPath><clipPath id="7626e00d48"><path d="M 0.886719 0 L 390 0 L 390 54.515625 L 0.886719 54.515625 Z M 0.886719 0 " clip-rule="nonzero"/></clipPath><clipPath id="cffcd6f2de"><rect x="0" width="390" y="0" height="55"/></clipPath><clipPath id="e64e6710de"><path d="M 0 420.886719 L 54.515625 420.886719 L 54.515625 810 L 0 810 Z M 0 420.886719 " clip-rule="nonzero"/></clipPath><clipPath id="920e383cce"><path d="M 0 0.886719 L 54.515625 0.886719 L 54.515625 390 L 0 390 Z M 0 0.886719 " clip-rule="nonzero"/></clipPath><clipPath id="431d3f1d16"><rect x="0" width="55" y="0" height="390"/></clipPath><clipPath id="8b856e73f2"><path d="M 755.484375 27.257812 L 810 27.257812 L 810 416.371094 L 755.484375 416.371094 Z M 755.484375 27.257812 " clip-rule="nonzero"/></clipPath><clipPath id="2b6f5f5da6"><path d="M 0.484375 0.257812 L 55 0.257812 L 55 389.371094 L 0.484375 389.371094 Z M 0.484375 0.257812 " clip-rule="nonzero"/></clipPath><clipPath id="b30a0059b5"><rect x="0" width="55" y="0" height="390"/></clipPath></defs><g clip-path="url(#8412b2d829)"><g transform="matrix(1, 0, 0, 1, 0, 0.000000000000039746)"><g clip-path="url(#b302f8e0e1)"><g clip-path="url(#5aa6ddd716)"><path fill="#cf1d25" d="M 0 0 L 327.996094 0 L 327.996094 327.996094 L 0 327.996094 Z M 0 0 " fill-opacity="1" fill-rule="nonzero"/></g></g></g></g><g clip-path="url(#1cf0013d6f)"><g transform="matrix(1, 0, 0, 1, 482, 482)"><g clip-path="url(#57ebebee53)"><g clip-path="url(#76e3588243)"><path fill="#cf1d25" d="M 0.00390625 0.00390625 L 328 0.00390625 L 328 328 L 0.00390625 328 Z M 0.00390625 0.00390625 " fill-opacity="1" fill-rule="nonzero"/></g></g></g></g><g clip-path="url(#ecbbe37e9f)"><g transform="matrix(1, 0, 0, 1, 0, 377)"><g clip-path="url(#40eeabf2fb)"><g clip-path="url(#6567485840)"><path fill="#f58041" d="M 810 0.742188 L 810 55.257812 L -0.0703125 55.257812 L -0.0703125 0.742188 Z M 810 0.742188 " fill-opacity="1" fill-rule="nonzero"/></g></g></g></g><g clip-path="url(#df7deb6645)"><g transform="matrix(1, 0, 0, 1, 377, 0.000000000000039746)"><g clip-path="url(#94cb73f138)"><g clip-path="url(#3753badb24)"><path fill="#f58041" d="M 55.257812 810 L 0.742188 810 L 0.742188 -0.0703125 L 55.257812 -0.0703125 Z M 55.257812 810 " fill-opacity="1" fill-rule="nonzero"/></g></g></g></g><g clip-path="url(#6eb282cf90)"><g transform="matrix(1, 0, 0, 1, 27, 755)"><g clip-path="url(#97456c57e8)"><g clip-path="url(#15ca599481)"><path fill="#f58041" d="M 389.367188 0.484375 L 389.367188 55 L 0.304688 55 L 0.304688 0.484375 Z M 389.367188 0.484375 " fill-opacity="1" fill-rule="nonzero"/></g></g></g></g><g clip-path="url(#867764ea7f)"><g transform="matrix(1, 0, 0, 1, 420, 0.000000000000039746)"><g clip-path="url(#cffcd6f2de)"><g clip-path="url(#7626e00d48)"><path fill="#f58041" d="M 390 0 L 390 54.515625 L 0.933594 54.515625 L 0.933594 0 Z M 390 0 " fill-opacity="1" fill-rule="nonzero"/></g></g></g></g><g clip-path="url(#e64e6710de)"><g transform="matrix(1, 0, 0, 1, 0, 420)"><g clip-path="url(#431d3f1d16)"><g clip-path="url(#920e383cce)"><path fill="#f58041" d="M 0 0.886719 L 54.515625 0.886719 L 54.515625 389.953125 L 0 389.953125 Z M 0 0.886719 " fill-opacity="1" fill-rule="nonzero"/></g></g></g></g><g clip-path="url(#8b856e73f2)"><g transform="matrix(1, 0, 0, 1, 755, 27)"><g clip-path="url(#b30a0059b5)"><g clip-path="url(#2b6f5f5da6)"><path fill="#f58041" d="M 0.484375 0.257812 L 55 0.257812 L 55 389.320312 L 0.484375 389.320312 Z M 0.484375 0.257812 " fill-opacity="1" fill-rule="nonzero"/></g></g></g></g></svg>