<svg xmlns="http://www.w3.org/2000/svg" xmlns:xlink="http://www.w3.org/1999/xlink" width="100" zoomAndPan="magnify" viewBox="0 0 75 74.999997" height="100" preserveAspectRatio="xMidYMid meet" version="1.0"><defs><clipPath id="187ba31828"><path d="M 0 0 L 30.371094 0 L 30.371094 30.371094 L 0 30.371094 Z M 0 0 " clip-rule="nonzero"/></clipPath><clipPath id="36f6022878"><path d="M 0 0 L 30.371094 0 L 30.371094 30.371094 L 0 30.371094 Z M 0 0 " clip-rule="nonzero"/></clipPath><clipPath id="4a9476a7b3"><rect x="0" width="31" y="0" height="31"/></clipPath><clipPath id="2dfa22fc5e"><path d="M 44.628906 44.628906 L 75 44.628906 L 75 75 L 44.628906 75 Z M 44.628906 44.628906 " clip-rule="nonzero"/></clipPath><clipPath id="5858aa4656"><path d="M 0.628906 0.628906 L 31 0.628906 L 31 31 L 0.628906 31 Z M 0.628906 0.628906 " clip-rule="nonzero"/></clipPath><clipPath id="823dd55179"><rect x="0" width="31" y="0" height="31"/></clipPath><clipPath id="729993ee5d"><path d="M 0 34.980469 L 74.996094 34.980469 L 74.996094 40.027344 L 0 40.027344 Z M 0 34.980469 " clip-rule="nonzero"/></clipPath><clipPath id="6b90be6929"><path d="M 0 0.980469 L 74.996094 0.980469 L 74.996094 6.027344 L 0 6.027344 Z M 0 0.980469 " clip-rule="nonzero"/></clipPath><clipPath id="eec6891361"><rect x="0" width="75" y="0" height="7"/></clipPath><clipPath id="d9729bfc78"><path d="M 34.96875 0 L 40.015625 0 L 40.015625 75 L 34.96875 75 Z M 34.96875 0 " clip-rule="nonzero"/></clipPath><clipPath id="e45f13be81"><path d="M 0.96875 0 L 6.015625 0 L 6.015625 75 L 0.96875 75 Z M 0.96875 0 " clip-rule="nonzero"/></clipPath><clipPath id="802ff518a8"><rect x="0" width="7" y="0" height="75"/></clipPath><clipPath id="278a4cd1f8"><path d="M 2.515625 69.953125 L 38.546875 69.953125 L 38.546875 75 L 2.515625 75 Z M 2.515625 69.953125 " clip-rule="nonzero"/></clipPath><clipPath id="e0ab2ac8fa"><path d="M 0.515625 0.953125 L 36.546875 0.953125 L 36.546875 6 L 0.515625 6 Z M 0.515625 0.953125 " clip-rule="nonzero"/></clipPath><clipPath id="f65027bbcb"><rect x="0" width="37" y="0" height="6"/></clipPath><clipPath id="1739777dd1"><path d="M 38.964844 0 L 74.992188 0 L 74.992188 5.050781 L 38.964844 5.050781 Z M 38.964844 0 " clip-rule="nonzero"/></clipPath><clipPath id="55731dec45"><path d="M 0.964844 0 L 36.992188 0 L 36.992188 5.050781 L 0.964844 5.050781 Z M 0.964844 0 " clip-rule="nonzero"/></clipPath><clipPath id="1c875b69d6"><rect x="0" width="37" y="0" height="6"/></clipPath><clipPath id="21e3892485"><path d="M 0 38.972656 L 5.046875 38.972656 L 5.046875 75 L 0 75 Z M 0 38.972656 " clip-rule="nonzero"/></clipPath><clipPath id="1c9a0e9a71"><path d="M 0 0.972656 L 5.046875 0.972656 L 5.046875 37 L 0 37 Z M 0 0.972656 " clip-rule="nonzero"/></clipPath><clipPath id="4136dc47b4"><rect x="0" width="6" y="0" height="37"/></clipPath><clipPath id="8e3d6591de"><path d="M 69.953125 2.523438 L 75 2.523438 L 75 38.554688 L 69.953125 38.554688 Z M 69.953125 2.523438 " clip-rule="nonzero"/></clipPath><clipPath id="2812cf94df"><path d="M 0.953125 0.523438 L 6 0.523438 L 6 36.554688 L 0.953125 36.554688 Z M 0.953125 0.523438 " clip-rule="nonzero"/></clipPath><clipPath id="1d689f1c90"><rect x="0" width="6" y="0" height="37"/></clipPath></defs><g clip-path="url(#187ba31828)"><g transform="matrix(1, 0, 0, 1, 0, -0.000000000000001893)"><g clip-path="url(#4a9476a7b3)"><g clip-path="url(#36f6022878)"><path fill="#cf1d25" d="M 0 0 L 30.371094 0 L 30.371094 30.371094 L 0 30.371094 Z M 0 0 " fill-opacity="1" fill-rule="nonzero"/></g></g></g></g><g clip-path="url(#2dfa22fc5e)"><g transform="matrix(1, 0, 0, 1, 44, 44)"><g clip-path="url(#823dd55179)"><g clip-path="url(#5858aa4656)"><path fill="#cf1d25" d="M 0.628906 0.628906 L 31 0.628906 L 31 31 L 0.628906 31 Z M 0.628906 0.628906 " fill-opacity="1" fill-rule="nonzero"/></g></g></g></g><g clip-path="url(#729993ee5d)"><g transform="matrix(1, 0, 0, 1, 0, 34)"><g clip-path="url(#eec6891361)"><g clip-path="url(#6b90be6929)"><path fill="#f58041" d="M 74.996094 0.980469 L 74.996094 6.027344 L -0.0117188 6.027344 L -0.0117188 0.980469 Z M 74.996094 0.980469 " fill-opacity="1" fill-rule="nonzero"/></g></g></g></g><g clip-path="url(#d9729bfc78)"><g transform="matrix(1, 0, 0, 1, 34, -0.000000000000001893)"><g clip-path="url(#802ff518a8)"><g clip-path="url(#e45f13be81)"><path fill="#f58041" d="M 6.015625 75 L 0.96875 75 L 0.96875 -0.0078125 L 6.015625 -0.0078125 Z M 6.015625 75 " fill-opacity="1" fill-rule="nonzero"/></g></g></g></g><g clip-path="url(#278a4cd1f8)"><g transform="matrix(1, 0, 0, 1, 2, 69)"><g clip-path="url(#f65027bbcb)"><g clip-path="url(#e0ab2ac8fa)"><path fill="#f58041" d="M 36.546875 0.953125 L 36.546875 6 L 0.519531 6 L 0.519531 0.953125 Z M 36.546875 0.953125 " fill-opacity="1" fill-rule="nonzero"/></g></g></g></g><g clip-path="url(#1739777dd1)"><g transform="matrix(1, 0, 0, 1, 38, -0.000000000000001893)"><g clip-path="url(#1c875b69d6)"><g clip-path="url(#55731dec45)"><path fill="#f58041" d="M 36.992188 0 L 36.992188 5.050781 L 0.96875 5.050781 L 0.96875 0 Z M 36.992188 0 " fill-opacity="1" fill-rule="nonzero"/></g></g></g></g><g clip-path="url(#21e3892485)"><g transform="matrix(1, 0, 0, 1, 0, 38)"><g clip-path="url(#4136dc47b4)"><g clip-path="url(#1c9a0e9a71)"><path fill="#f58041" d="M 0 0.972656 L 5.046875 0.972656 L 5.046875 36.996094 L 0 36.996094 Z M 0 0.972656 " fill-opacity="1" fill-rule="nonzero"/></g></g></g></g><g clip-path="url(#8e3d6591de)"><g transform="matrix(1, 0, 0, 1, 69, 2)"><g clip-path="url(#1d689f1c90)"><g clip-path="url(#2812cf94df)"><path fill="#f58041" d="M 0.953125 0.523438 L 6 0.523438 L 6 36.546875 L 0.953125 36.546875 Z M 0.953125 0.523438 " fill-opacity="1" fill-rule="nonzero"/></g></g></g></g></svg>