<svg xmlns="http://www.w3.org/2000/svg" xmlns:xlink="http://www.w3.org/1999/xlink" width="1920" zoomAndPan="magnify" viewBox="0 0 1440 809.999993" height="1080" preserveAspectRatio="xMidYMid meet" version="1.0"><defs><g/><clipPath id="1bdffd74df"><path d="M 139.179688 154.144531 L 342.355469 154.144531 L 342.355469 357.320312 L 139.179688 357.320312 Z M 139.179688 154.144531 " clip-rule="nonzero"/></clipPath><clipPath id="de2481c879"><path d="M 437.753906 452.71875 L 640.929688 452.71875 L 640.929688 655.894531 L 437.753906 655.894531 Z M 437.753906 452.71875 " clip-rule="nonzero"/></clipPath><clipPath id="22e586f8a6"><path d="M 139.179688 388.132812 L 640.929688 388.132812 L 640.929688 421.902344 L 139.179688 421.902344 Z M 139.179688 388.132812 " clip-rule="nonzero"/></clipPath><clipPath id="44cd412edf"><path d="M 373.167969 154.144531 L 406.9375 154.144531 L 406.9375 655.894531 L 373.167969 655.894531 Z M 373.167969 154.144531 " clip-rule="nonzero"/></clipPath><clipPath id="6d57fd5ac4"><path d="M 156.0625 622.125 L 397.09375 622.125 L 397.09375 655.894531 L 156.0625 655.894531 Z M 156.0625 622.125 " clip-rule="nonzero"/></clipPath><clipPath id="6a25299216"><path d="M 399.894531 154.144531 L 640.929688 154.144531 L 640.929688 187.914062 L 399.894531 187.914062 Z M 399.894531 154.144531 " clip-rule="nonzero"/></clipPath><clipPath id="16930cd92b"><path d="M 139.179688 414.859375 L 172.949219 414.859375 L 172.949219 655.894531 L 139.179688 655.894531 Z M 139.179688 414.859375 " clip-rule="nonzero"/></clipPath><clipPath id="5a78db4dd4"><path d="M 607.160156 171.027344 L 640.929688 171.027344 L 640.929688 412.0625 L 607.160156 412.0625 Z M 607.160156 171.027344 " clip-rule="nonzero"/></clipPath><clipPath id="bb7fd4d00f"><rect x="0" width="621" y="0" height="75"/></clipPath></defs><g clip-path="url(#1bdffd74df)"><path fill="#cf1d25" d="M 139.179688 154.144531 L 342.355469 154.144531 L 342.355469 357.320312 L 139.179688 357.320312 Z M 139.179688 154.144531 " fill-opacity="1" fill-rule="nonzero"/></g><g clip-path="url(#de2481c879)"><path fill="#cf1d25" d="M 437.753906 452.71875 L 640.929688 452.71875 L 640.929688 655.894531 L 437.753906 655.894531 Z M 437.753906 452.71875 " fill-opacity="1" fill-rule="nonzero"/></g><g clip-path="url(#22e586f8a6)"><path fill="#f58041" d="M 139.136719 388.132812 L 640.929688 388.132812 L 640.929688 421.902344 L 139.136719 421.902344 Z M 139.136719 388.132812 " fill-opacity="1" fill-rule="nonzero"/></g><g clip-path="url(#44cd412edf)"><path fill="#f58041" d="M 373.167969 154.101562 L 406.9375 154.101562 L 406.9375 655.894531 L 373.167969 655.894531 Z M 373.167969 154.101562 " fill-opacity="1" fill-rule="nonzero"/></g><g clip-path="url(#6d57fd5ac4)"><path fill="#f58041" d="M 156.09375 622.125 L 397.09375 622.125 L 397.09375 655.894531 L 156.09375 655.894531 Z M 156.09375 622.125 " fill-opacity="1" fill-rule="nonzero"/></g><g clip-path="url(#6a25299216)"><path fill="#f58041" d="M 399.921875 154.144531 L 640.929688 154.144531 L 640.929688 187.914062 L 399.921875 187.914062 Z M 399.921875 154.144531 " fill-opacity="1" fill-rule="nonzero"/></g><g clip-path="url(#16930cd92b)"><path fill="#f58041" d="M 139.179688 414.859375 L 172.949219 414.859375 L 172.949219 655.863281 L 139.179688 655.863281 Z M 139.179688 414.859375 " fill-opacity="1" fill-rule="nonzero"/></g><g clip-path="url(#5a78db4dd4)"><path fill="#f58041" d="M 607.160156 171.027344 L 640.929688 171.027344 L 640.929688 412.03125 L 607.160156 412.03125 Z M 607.160156 171.027344 " fill-opacity="1" fill-rule="nonzero"/></g><g fill="#000000" fill-opacity="1"><g transform="translate(670.295253, 441.744065)"><g><path d="M 29.625 0 C 24.882812 0 20.929688 -1.535156 17.765625 -4.609375 C 14.609375 -7.691406 13.03125 -11.289062 13.03125 -15.40625 L 13.03125 -150.46875 C 13.03125 -154.570312 14.609375 -158.160156 17.765625 -161.234375 C 20.929688 -164.316406 24.882812 -165.859375 29.625 -165.859375 L 62.796875 -165.859375 C 77.640625 -165.859375 89.050781 -162.023438 97.03125 -154.359375 C 105.007812 -146.703125 109 -136.320312 109 -123.21875 C 109 -116.269531 108.007812 -110.703125 106.03125 -106.515625 C 104.0625 -102.328125 101.890625 -98.96875 99.515625 -96.4375 C 96.671875 -93.59375 93.515625 -91.460938 90.046875 -90.046875 L 90.046875 -87.671875 C 94.460938 -86.085938 98.410156 -83.640625 101.890625 -80.328125 C 104.890625 -77.484375 107.613281 -73.414062 110.0625 -68.125 C 112.507812 -62.832031 113.734375 -55.921875 113.734375 -47.390625 C 113.734375 -32.535156 109.507812 -20.921875 101.0625 -12.546875 C 92.613281 -4.179688 80.644531 0 65.15625 0 Z M 65.15625 -28.4375 C 69.269531 -28.4375 72.863281 -30.210938 75.9375 -33.765625 C 79.019531 -37.316406 80.5625 -42.648438 80.5625 -49.765625 C 80.5625 -56.867188 79.019531 -62.195312 75.9375 -65.75 C 72.863281 -69.300781 69.269531 -71.078125 65.15625 -71.078125 L 46.203125 -71.078125 L 46.203125 -28.4375 Z M 62.796875 -99.515625 C 66.429688 -99.515625 69.507812 -101.015625 72.03125 -104.015625 C 74.5625 -107.023438 75.828125 -111.84375 75.828125 -118.46875 C 75.828125 -125.101562 74.5625 -129.921875 72.03125 -132.921875 C 69.507812 -135.929688 66.429688 -137.4375 62.796875 -137.4375 L 46.203125 -137.4375 L 46.203125 -99.515625 Z M 62.796875 -99.515625 "/></g></g></g><g fill="#000000" fill-opacity="1"><g transform="translate(791.142063, 441.744065)"><g><path d="M 53.3125 4.734375 C 45.882812 4.734375 39.128906 3.585938 33.046875 1.296875 C 26.972656 -0.984375 21.722656 -3.898438 17.296875 -7.453125 C 12.867188 -11.015625 9.46875 -14.96875 7.09375 -19.3125 C 4.726562 -23.65625 3.546875 -27.878906 3.546875 -31.984375 C 3.546875 -36.097656 5.125 -39.691406 8.28125 -42.765625 C 11.445312 -45.847656 15.398438 -47.390625 20.140625 -47.390625 C 23.929688 -47.390625 27.050781 -46.28125 29.5 -44.0625 C 31.945312 -41.851562 34.238281 -39.40625 36.375 -36.71875 C 38.507812 -34.039062 40.835938 -31.59375 43.359375 -29.375 C 45.890625 -27.164062 49.207031 -26.0625 53.3125 -26.0625 C 57.414062 -26.0625 61.007812 -27.71875 64.09375 -31.03125 C 67.175781 -34.351562 68.71875 -39.015625 68.71875 -45.015625 C 68.71875 -49.910156 67.175781 -53.976562 64.09375 -57.21875 C 61.007812 -60.457031 57.21875 -63.421875 52.71875 -66.109375 C 48.21875 -68.796875 43.28125 -71.519531 37.90625 -74.28125 C 32.539062 -77.050781 27.601562 -80.445312 23.09375 -84.46875 C 18.59375 -88.5 14.800781 -93.472656 11.71875 -99.390625 C 8.644531 -105.316406 7.109375 -112.863281 7.109375 -122.03125 C 7.109375 -129.132812 8.289062 -135.648438 10.65625 -141.578125 C 13.03125 -147.503906 16.269531 -152.640625 20.375 -156.984375 C 24.476562 -161.328125 29.375 -164.679688 35.0625 -167.046875 C 40.75 -169.421875 46.832031 -170.609375 53.3125 -170.609375 C 59.789062 -170.609375 65.832031 -169.460938 71.4375 -167.171875 C 77.050781 -164.878906 81.945312 -161.992188 86.125 -158.515625 C 90.3125 -155.046875 93.585938 -151.21875 95.953125 -147.03125 C 98.328125 -142.84375 99.515625 -138.851562 99.515625 -135.0625 C 99.515625 -130.957031 97.9375 -127.363281 94.78125 -124.28125 C 91.625 -121.195312 87.675781 -119.65625 82.9375 -119.65625 C 79.144531 -119.65625 76.179688 -120.722656 74.046875 -122.859375 C 71.910156 -124.992188 69.9375 -127.285156 68.125 -129.734375 C 66.3125 -132.179688 64.335938 -134.46875 62.203125 -136.59375 C 60.066406 -138.726562 57.101562 -139.796875 53.3125 -139.796875 C 49.675781 -139.796875 46.789062 -138.570312 44.65625 -136.125 C 42.53125 -133.675781 41.46875 -129.769531 41.46875 -124.40625 C 41.46875 -119.507812 43.003906 -115.441406 46.078125 -112.203125 C 49.160156 -108.960938 52.953125 -106 57.453125 -103.3125 C 61.960938 -100.625 66.898438 -97.894531 72.265625 -95.125 C 77.640625 -92.363281 82.578125 -88.96875 87.078125 -84.9375 C 91.578125 -80.914062 95.367188 -75.898438 98.453125 -69.890625 C 101.535156 -63.890625 103.078125 -56.390625 103.078125 -47.390625 C 103.078125 -39.335938 101.890625 -32.109375 99.515625 -25.703125 C 97.148438 -19.304688 93.753906 -13.859375 89.328125 -9.359375 C 84.910156 -4.859375 79.660156 -1.382812 73.578125 1.0625 C 67.492188 3.507812 60.738281 4.734375 53.3125 4.734375 Z M 53.3125 4.734375 "/></g></g></g><g fill="#000000" fill-opacity="1"><g transform="translate(898.956388, 441.744065)"><g><path d="M 65.15625 4.734375 C 57.101562 4.734375 49.796875 3.46875 43.234375 0.9375 C 36.679688 -1.582031 31.078125 -5.210938 26.421875 -9.953125 C 21.765625 -14.691406 18.171875 -20.414062 15.640625 -27.125 C 13.109375 -33.84375 11.84375 -41.390625 11.84375 -49.765625 L 11.84375 -116.109375 C 11.84375 -124.316406 13.109375 -131.773438 15.640625 -138.484375 C 18.171875 -145.203125 21.765625 -150.929688 26.421875 -155.671875 C 31.078125 -160.410156 36.679688 -164.082031 43.234375 -166.6875 C 49.796875 -169.300781 57.101562 -170.609375 65.15625 -170.609375 C 71.945312 -170.609375 78.226562 -169.460938 84 -167.171875 C 89.769531 -164.878906 94.785156 -161.992188 99.046875 -158.515625 C 103.304688 -155.046875 106.617188 -151.21875 108.984375 -147.03125 C 111.359375 -142.84375 112.546875 -138.851562 112.546875 -135.0625 C 112.546875 -130.957031 110.96875 -127.363281 107.8125 -124.28125 C 104.65625 -121.195312 100.707031 -119.65625 95.96875 -119.65625 C 92.175781 -119.65625 89.171875 -120.722656 86.953125 -122.859375 C 84.742188 -124.992188 82.691406 -127.285156 80.796875 -129.734375 C 78.898438 -132.179688 76.726562 -134.46875 74.28125 -136.59375 C 71.832031 -138.726562 68.398438 -139.796875 63.984375 -139.796875 C 58.609375 -139.796875 54.300781 -137.941406 51.0625 -134.234375 C 47.820312 -130.523438 46.203125 -124.484375 46.203125 -116.109375 L 46.203125 -49.765625 C 46.203125 -41.390625 47.859375 -35.34375 51.171875 -31.625 C 54.492188 -27.914062 59.15625 -26.0625 65.15625 -26.0625 C 69.269531 -26.0625 72.585938 -27.164062 75.109375 -29.375 C 77.640625 -31.59375 79.96875 -34.039062 82.09375 -36.71875 C 84.226562 -39.40625 86.519531 -41.851562 88.96875 -44.0625 C 91.425781 -46.28125 94.546875 -47.390625 98.328125 -47.390625 C 103.066406 -47.390625 107.015625 -45.847656 110.171875 -42.765625 C 113.335938 -39.691406 114.921875 -36.097656 114.921875 -31.984375 C 114.921875 -27.878906 113.734375 -23.65625 111.359375 -19.3125 C 108.992188 -14.96875 105.597656 -11.015625 101.171875 -7.453125 C 96.753906 -3.898438 91.503906 -0.984375 85.421875 1.296875 C 79.335938 3.585938 72.582031 4.734375 65.15625 4.734375 Z M 65.15625 4.734375 "/></g></g></g><g fill="#000000" fill-opacity="1"><g transform="translate(1017.433678, 441.744065)"><g><path d="M 29.625 2.375 C 24.882812 2.375 20.929688 0.832031 17.765625 -2.25 C 14.609375 -5.332031 13.03125 -8.925781 13.03125 -13.03125 L 13.03125 -150.46875 C 13.03125 -154.570312 14.609375 -158.160156 17.765625 -161.234375 C 20.929688 -164.316406 24.882812 -165.859375 29.625 -165.859375 L 88.859375 -165.859375 C 93.597656 -165.859375 97.546875 -164.316406 100.703125 -161.234375 C 103.859375 -158.160156 105.4375 -154.570312 105.4375 -150.46875 C 105.4375 -146.351562 103.859375 -142.753906 100.703125 -139.671875 C 97.546875 -136.597656 93.597656 -135.0625 88.859375 -135.0625 L 46.203125 -135.0625 L 46.203125 -91.234375 L 71.078125 -91.234375 C 75.816406 -91.234375 79.765625 -89.691406 82.921875 -86.609375 C 86.085938 -83.523438 87.671875 -79.929688 87.671875 -75.828125 C 87.671875 -71.722656 86.085938 -68.128906 82.921875 -65.046875 C 79.765625 -61.960938 75.816406 -60.421875 71.078125 -60.421875 L 46.203125 -60.421875 L 46.203125 -13.03125 C 46.203125 -8.925781 44.625 -5.332031 41.46875 -2.25 C 38.3125 0.832031 34.363281 2.375 29.625 2.375 Z M 29.625 2.375 "/></g></g></g><g transform="matrix(1, 0, 0, 1, 681, 500)"><g clip-path="url(#bb7fd4d00f)"><g fill="#000000" fill-opacity="1"><g transform="translate(0.564874, 53.890041)"><g><path d="M 5.65625 0 C 4.976562 0 4.445312 -0.222656 4.0625 -0.671875 C 3.6875 -1.117188 3.5 -1.613281 3.5 -2.15625 L 3.5 -35.5625 C 3.5 -36.09375 3.6875 -36.582031 4.0625 -37.03125 C 4.445312 -37.488281 4.976562 -37.71875 5.65625 -37.71875 L 14 -37.71875 C 15.40625 -37.71875 16.671875 -37.460938 17.796875 -36.953125 C 18.929688 -36.453125 19.894531 -35.742188 20.6875 -34.828125 C 21.476562 -33.910156 22.085938 -32.820312 22.515625 -31.5625 C 22.953125 -30.3125 23.171875 -28.945312 23.171875 -27.46875 C 23.171875 -25.894531 22.953125 -24.613281 22.515625 -23.625 C 22.085938 -22.632812 21.625 -21.835938 21.125 -21.234375 C 20.507812 -20.546875 19.84375 -20.023438 19.125 -19.671875 L 19.125 -19.390625 C 20.132812 -18.992188 21.03125 -18.421875 21.8125 -17.671875 C 22.5 -17.023438 23.117188 -16.125 23.671875 -14.96875 C 24.234375 -13.820312 24.515625 -12.332031 24.515625 -10.5 C 24.515625 -8.957031 24.257812 -7.539062 23.75 -6.25 C 23.25 -4.957031 22.539062 -3.851562 21.625 -2.9375 C 20.707031 -2.019531 19.617188 -1.300781 18.359375 -0.78125 C 17.109375 -0.257812 15.75 0 14.28125 0 Z M 14.28125 -3.765625 C 15.070312 -3.765625 15.820312 -3.925781 16.53125 -4.25 C 17.25 -4.570312 17.878906 -5.03125 18.421875 -5.625 C 18.960938 -6.21875 19.394531 -6.925781 19.71875 -7.75 C 20.039062 -8.582031 20.203125 -9.5 20.203125 -10.5 C 20.203125 -11.507812 20.039062 -12.425781 19.71875 -13.25 C 19.394531 -14.082031 18.960938 -14.789062 18.421875 -15.375 C 17.878906 -15.96875 17.25 -16.425781 16.53125 -16.75 C 15.820312 -17.070312 15.070312 -17.234375 14.28125 -17.234375 L 7.8125 -17.234375 L 7.8125 -3.765625 Z M 14 -21.015625 C 15.375 -21.015625 16.523438 -21.550781 17.453125 -22.625 C 18.390625 -23.707031 18.859375 -25.320312 18.859375 -27.46875 C 18.859375 -29.625 18.390625 -31.238281 17.453125 -32.3125 C 16.523438 -33.394531 15.375 -33.9375 14 -33.9375 L 7.8125 -33.9375 L 7.8125 -21.015625 Z M 14 -21.015625 "/></g></g></g><g fill="#000000" fill-opacity="1"><g transform="translate(26.960882, 53.890041)"><g><path d="M 9.15625 0.8125 C 8.226562 0.8125 7.320312 0.601562 6.4375 0.1875 C 5.5625 -0.226562 4.78125 -0.796875 4.09375 -1.515625 C 3.414062 -2.234375 2.878906 -3.082031 2.484375 -4.0625 C 2.085938 -5.050781 1.890625 -6.117188 1.890625 -7.265625 C 1.890625 -8.421875 2.09375 -9.488281 2.5 -10.46875 C 2.914062 -11.457031 3.484375 -12.3125 4.203125 -13.03125 C 4.921875 -13.75 5.773438 -14.316406 6.765625 -14.734375 C 7.753906 -15.148438 8.820312 -15.359375 9.96875 -15.359375 L 14.28125 -15.359375 L 14.28125 -18.59375 C 14.28125 -19.957031 13.875 -21.0625 13.0625 -21.90625 C 12.257812 -22.75 11.316406 -23.171875 10.234375 -23.171875 C 9.367188 -23.171875 8.6875 -23 8.1875 -22.65625 C 7.6875 -22.3125 7.253906 -21.941406 6.890625 -21.546875 C 6.535156 -21.148438 6.195312 -20.78125 5.875 -20.4375 C 5.550781 -20.101562 5.117188 -19.9375 4.578125 -19.9375 C 4.035156 -19.9375 3.582031 -20.113281 3.21875 -20.46875 C 2.863281 -20.832031 2.6875 -21.28125 2.6875 -21.8125 C 2.6875 -22.207031 2.78125 -22.585938 2.96875 -22.953125 C 3.039062 -23.128906 3.128906 -23.289062 3.234375 -23.4375 C 3.453125 -23.757812 3.75 -24.125 4.125 -24.53125 C 4.5 -24.945312 4.960938 -25.332031 5.515625 -25.6875 C 6.078125 -26.050781 6.753906 -26.347656 7.546875 -26.578125 C 8.335938 -26.816406 9.234375 -26.9375 10.234375 -26.9375 C 11.453125 -26.9375 12.570312 -26.710938 13.59375 -26.265625 C 14.625 -25.816406 15.503906 -25.210938 16.234375 -24.453125 C 16.972656 -23.703125 17.550781 -22.820312 17.96875 -21.8125 C 18.382812 -20.8125 18.59375 -19.738281 18.59375 -18.59375 L 18.59375 -1.890625 C 18.59375 -1.347656 18.398438 -0.851562 18.015625 -0.40625 C 17.640625 0.0390625 17.113281 0.265625 16.4375 0.265625 C 16.039062 0.265625 15.707031 0.179688 15.4375 0.015625 C 15.164062 -0.140625 14.941406 -0.320312 14.765625 -0.53125 C 14.585938 -0.75 14.425781 -1.019531 14.28125 -1.34375 L 14 -1.34375 C 13.675781 -0.945312 13.300781 -0.585938 12.875 -0.265625 C 12.476562 0.015625 11.972656 0.265625 11.359375 0.484375 C 10.753906 0.703125 10.019531 0.8125 9.15625 0.8125 Z M 9.96875 -2.96875 C 10.644531 -2.96875 11.242188 -3.09375 11.765625 -3.34375 C 12.285156 -3.59375 12.742188 -3.859375 13.140625 -4.140625 C 13.578125 -4.503906 13.957031 -4.921875 14.28125 -5.390625 L 14.28125 -11.578125 L 9.96875 -11.578125 C 8.882812 -11.578125 7.984375 -11.203125 7.265625 -10.453125 C 6.554688 -9.703125 6.203125 -8.640625 6.203125 -7.265625 C 6.203125 -5.898438 6.554688 -4.84375 7.265625 -4.09375 C 7.984375 -3.34375 8.882812 -2.96875 9.96875 -2.96875 Z M 9.96875 -2.96875 "/></g></g></g><g fill="#000000" fill-opacity="1"><g transform="translate(48.508647, 53.890041)"><g><path d="M 5.125 0.265625 C 4.4375 0.265625 3.90625 0.0390625 3.53125 -0.40625 C 3.15625 -0.851562 2.96875 -1.347656 2.96875 -1.890625 L 2.96875 -24.25 C 2.96875 -24.78125 3.15625 -25.269531 3.53125 -25.71875 C 3.90625 -26.175781 4.4375 -26.40625 5.125 -26.40625 C 5.507812 -26.40625 5.835938 -26.3125 6.109375 -26.125 C 6.378906 -25.945312 6.601562 -25.769531 6.78125 -25.59375 C 6.96875 -25.34375 7.128906 -25.070312 7.265625 -24.78125 L 7.546875 -24.78125 C 7.867188 -25.175781 8.28125 -25.535156 8.78125 -25.859375 C 9.207031 -26.148438 9.734375 -26.398438 10.359375 -26.609375 C 10.992188 -26.828125 11.757812 -26.9375 12.65625 -26.9375 C 13.59375 -26.9375 14.519531 -26.710938 15.4375 -26.265625 C 16.351562 -25.816406 17.160156 -25.195312 17.859375 -24.40625 C 18.554688 -23.613281 19.117188 -22.675781 19.546875 -21.59375 C 19.984375 -20.519531 20.203125 -19.335938 20.203125 -18.046875 L 20.203125 -1.890625 C 20.203125 -1.347656 20.015625 -0.851562 19.640625 -0.40625 C 19.265625 0.0390625 18.734375 0.265625 18.046875 0.265625 C 17.367188 0.265625 16.835938 0.0390625 16.453125 -0.40625 C 16.078125 -0.851562 15.890625 -1.347656 15.890625 -1.890625 L 15.890625 -18.046875 C 15.890625 -19.660156 15.476562 -20.914062 14.65625 -21.8125 C 13.832031 -22.71875 12.804688 -23.171875 11.578125 -23.171875 C 10.359375 -23.171875 9.332031 -22.71875 8.5 -21.8125 C 7.675781 -20.914062 7.265625 -19.660156 7.265625 -18.046875 L 7.265625 -1.890625 C 7.265625 -1.347656 7.078125 -0.851562 6.703125 -0.40625 C 6.328125 0.0390625 5.800781 0.265625 5.125 0.265625 Z M 5.125 0.265625 "/></g></g></g><g fill="#000000" fill-opacity="1"><g transform="translate(71.672499, 53.890041)"><g><path d="M 11.578125 11.859375 C 10.503906 11.859375 9.546875 11.722656 8.703125 11.453125 C 7.859375 11.179688 7.113281 10.820312 6.46875 10.375 C 5.820312 9.925781 5.269531 9.429688 4.8125 8.890625 C 4.363281 8.347656 4.015625 7.804688 3.765625 7.265625 C 3.691406 7.160156 3.640625 7.035156 3.609375 6.890625 C 3.535156 6.609375 3.5 6.285156 3.5 5.921875 C 3.5 5.390625 3.675781 4.941406 4.03125 4.578125 C 4.394531 4.222656 4.847656 4.046875 5.390625 4.046875 C 5.929688 4.046875 6.351562 4.175781 6.65625 4.4375 C 6.957031 4.707031 7.253906 5.113281 7.546875 5.65625 C 7.941406 6.34375 8.441406 6.914062 9.046875 7.375 C 9.660156 7.84375 10.503906 8.078125 11.578125 8.078125 C 12.804688 8.078125 13.785156 7.691406 14.515625 6.921875 C 15.253906 6.148438 15.625 5.007812 15.625 3.5 L 15.625 -2.421875 L 15.359375 -2.421875 C 15.035156 -2.023438 14.617188 -1.664062 14.109375 -1.34375 C 13.679688 -1.0625 13.144531 -0.8125 12.5 -0.59375 C 11.851562 -0.375 11.097656 -0.265625 10.234375 -0.265625 C 9.296875 -0.265625 8.367188 -0.488281 7.453125 -0.9375 C 6.546875 -1.382812 5.738281 -2.003906 5.03125 -2.796875 C 4.332031 -3.585938 3.765625 -4.519531 3.328125 -5.59375 C 2.898438 -6.675781 2.6875 -7.863281 2.6875 -9.15625 L 2.6875 -18.046875 C 2.6875 -19.335938 2.898438 -20.519531 3.328125 -21.59375 C 3.765625 -22.675781 4.332031 -23.613281 5.03125 -24.40625 C 5.738281 -25.195312 6.546875 -25.816406 7.453125 -26.265625 C 8.367188 -26.710938 9.296875 -26.9375 10.234375 -26.9375 C 11.097656 -26.9375 11.851562 -26.828125 12.5 -26.609375 C 13.144531 -26.398438 13.679688 -26.148438 14.109375 -25.859375 C 14.617188 -25.535156 15.035156 -25.175781 15.359375 -24.78125 L 15.625 -24.78125 C 15.769531 -25.070312 15.929688 -25.34375 16.109375 -25.59375 C 16.285156 -25.769531 16.507812 -25.945312 16.78125 -26.125 C 17.050781 -26.3125 17.382812 -26.40625 17.78125 -26.40625 C 18.457031 -26.40625 18.984375 -26.175781 19.359375 -25.71875 C 19.742188 -25.269531 19.9375 -24.78125 19.9375 -24.25 L 19.9375 3.5 C 19.9375 4.71875 19.726562 5.835938 19.3125 6.859375 C 18.894531 7.890625 18.316406 8.769531 17.578125 9.5 C 16.847656 10.238281 15.972656 10.816406 14.953125 11.234375 C 13.929688 11.648438 12.804688 11.859375 11.578125 11.859375 Z M 11.3125 -4.046875 C 12.53125 -4.046875 13.550781 -4.492188 14.375 -5.390625 C 15.207031 -6.285156 15.625 -7.539062 15.625 -9.15625 L 15.625 -18.046875 C 15.625 -19.660156 15.207031 -20.914062 14.375 -21.8125 C 13.550781 -22.71875 12.53125 -23.171875 11.3125 -23.171875 C 10.09375 -23.171875 9.066406 -22.71875 8.234375 -21.8125 C 7.410156 -20.914062 7 -19.660156 7 -18.046875 L 7 -9.15625 C 7 -7.539062 7.410156 -6.285156 8.234375 -5.390625 C 9.066406 -4.492188 10.09375 -4.046875 11.3125 -4.046875 Z M 11.3125 -4.046875 "/></g></g></g><g fill="#000000" fill-opacity="1"><g transform="translate(94.567006, 53.890041)"><g><path d="M 5.125 0.265625 C 4.4375 0.265625 3.90625 0.0390625 3.53125 -0.40625 C 3.15625 -0.851562 2.96875 -1.347656 2.96875 -1.890625 L 2.96875 -35.28125 C 2.96875 -35.820312 3.15625 -36.316406 3.53125 -36.765625 C 3.90625 -37.210938 4.4375 -37.4375 5.125 -37.4375 C 5.800781 -37.4375 6.328125 -37.210938 6.703125 -36.765625 C 7.078125 -36.316406 7.265625 -35.820312 7.265625 -35.28125 L 7.265625 -1.890625 C 7.265625 -1.347656 7.078125 -0.851562 6.703125 -0.40625 C 6.328125 0.0390625 5.800781 0.265625 5.125 0.265625 Z M 5.125 0.265625 "/></g></g></g><g fill="#000000" fill-opacity="1"><g transform="translate(104.802199, 53.890041)"><g><path d="M 9.15625 0.8125 C 8.226562 0.8125 7.320312 0.601562 6.4375 0.1875 C 5.5625 -0.226562 4.78125 -0.796875 4.09375 -1.515625 C 3.414062 -2.234375 2.878906 -3.082031 2.484375 -4.0625 C 2.085938 -5.050781 1.890625 -6.117188 1.890625 -7.265625 C 1.890625 -8.421875 2.09375 -9.488281 2.5 -10.46875 C 2.914062 -11.457031 3.484375 -12.3125 4.203125 -13.03125 C 4.921875 -13.75 5.773438 -14.316406 6.765625 -14.734375 C 7.753906 -15.148438 8.820312 -15.359375 9.96875 -15.359375 L 14.28125 -15.359375 L 14.28125 -18.59375 C 14.28125 -19.957031 13.875 -21.0625 13.0625 -21.90625 C 12.257812 -22.75 11.316406 -23.171875 10.234375 -23.171875 C 9.367188 -23.171875 8.6875 -23 8.1875 -22.65625 C 7.6875 -22.3125 7.253906 -21.941406 6.890625 -21.546875 C 6.535156 -21.148438 6.195312 -20.78125 5.875 -20.4375 C 5.550781 -20.101562 5.117188 -19.9375 4.578125 -19.9375 C 4.035156 -19.9375 3.582031 -20.113281 3.21875 -20.46875 C 2.863281 -20.832031 2.6875 -21.28125 2.6875 -21.8125 C 2.6875 -22.207031 2.78125 -22.585938 2.96875 -22.953125 C 3.039062 -23.128906 3.128906 -23.289062 3.234375 -23.4375 C 3.453125 -23.757812 3.75 -24.125 4.125 -24.53125 C 4.5 -24.945312 4.960938 -25.332031 5.515625 -25.6875 C 6.078125 -26.050781 6.753906 -26.347656 7.546875 -26.578125 C 8.335938 -26.816406 9.234375 -26.9375 10.234375 -26.9375 C 11.453125 -26.9375 12.570312 -26.710938 13.59375 -26.265625 C 14.625 -25.816406 15.503906 -25.210938 16.234375 -24.453125 C 16.972656 -23.703125 17.550781 -22.820312 17.96875 -21.8125 C 18.382812 -20.8125 18.59375 -19.738281 18.59375 -18.59375 L 18.59375 -1.890625 C 18.59375 -1.347656 18.398438 -0.851562 18.015625 -0.40625 C 17.640625 0.0390625 17.113281 0.265625 16.4375 0.265625 C 16.039062 0.265625 15.707031 0.179688 15.4375 0.015625 C 15.164062 -0.140625 14.941406 -0.320312 14.765625 -0.53125 C 14.585938 -0.75 14.425781 -1.019531 14.28125 -1.34375 L 14 -1.34375 C 13.675781 -0.945312 13.300781 -0.585938 12.875 -0.265625 C 12.476562 0.015625 11.972656 0.265625 11.359375 0.484375 C 10.753906 0.703125 10.019531 0.8125 9.15625 0.8125 Z M 9.96875 -2.96875 C 10.644531 -2.96875 11.242188 -3.09375 11.765625 -3.34375 C 12.285156 -3.59375 12.742188 -3.859375 13.140625 -4.140625 C 13.578125 -4.503906 13.957031 -4.921875 14.28125 -5.390625 L 14.28125 -11.578125 L 9.96875 -11.578125 C 8.882812 -11.578125 7.984375 -11.203125 7.265625 -10.453125 C 6.554688 -9.703125 6.203125 -8.640625 6.203125 -7.265625 C 6.203125 -5.898438 6.554688 -4.84375 7.265625 -4.09375 C 7.984375 -3.34375 8.882812 -2.96875 9.96875 -2.96875 Z M 9.96875 -2.96875 "/></g></g></g><g fill="#000000" fill-opacity="1"><g transform="translate(126.349964, 53.890041)"><g><path d="M 10.234375 0.8125 C 9.296875 0.8125 8.367188 0.585938 7.453125 0.140625 C 6.546875 -0.304688 5.738281 -0.925781 5.03125 -1.71875 C 4.332031 -2.507812 3.765625 -3.441406 3.328125 -4.515625 C 2.898438 -5.597656 2.6875 -6.785156 2.6875 -8.078125 L 2.6875 -18.046875 C 2.6875 -19.335938 2.898438 -20.519531 3.328125 -21.59375 C 3.765625 -22.675781 4.332031 -23.613281 5.03125 -24.40625 C 5.738281 -25.195312 6.546875 -25.816406 7.453125 -26.265625 C 8.367188 -26.710938 9.296875 -26.9375 10.234375 -26.9375 C 11.097656 -26.9375 11.851562 -26.828125 12.5 -26.609375 C 13.144531 -26.398438 13.679688 -26.148438 14.109375 -25.859375 C 14.617188 -25.535156 15.035156 -25.175781 15.359375 -24.78125 L 15.625 -24.78125 L 15.625 -35.28125 C 15.625 -35.820312 15.8125 -36.316406 16.1875 -36.765625 C 16.5625 -37.210938 17.09375 -37.4375 17.78125 -37.4375 C 18.457031 -37.4375 18.984375 -37.210938 19.359375 -36.765625 C 19.742188 -36.316406 19.9375 -35.820312 19.9375 -35.28125 L 19.9375 -1.890625 C 19.9375 -1.347656 19.742188 -0.851562 19.359375 -0.40625 C 18.984375 0.0390625 18.457031 0.265625 17.78125 0.265625 C 17.382812 0.265625 17.050781 0.179688 16.78125 0.015625 C 16.507812 -0.140625 16.285156 -0.320312 16.109375 -0.53125 C 15.929688 -0.75 15.769531 -1.019531 15.625 -1.34375 L 15.359375 -1.34375 C 15.035156 -0.945312 14.617188 -0.585938 14.109375 -0.265625 C 13.679688 0.015625 13.144531 0.265625 12.5 0.484375 C 11.851562 0.703125 11.097656 0.8125 10.234375 0.8125 Z M 11.3125 -2.96875 C 12.53125 -2.96875 13.550781 -3.414062 14.375 -4.3125 C 15.207031 -5.207031 15.625 -6.460938 15.625 -8.078125 L 15.625 -18.046875 C 15.625 -19.660156 15.207031 -20.914062 14.375 -21.8125 C 13.550781 -22.71875 12.53125 -23.171875 11.3125 -23.171875 C 10.09375 -23.171875 9.066406 -22.71875 8.234375 -21.8125 C 7.410156 -20.914062 7 -19.660156 7 -18.046875 L 7 -8.078125 C 7 -6.460938 7.410156 -5.207031 8.234375 -4.3125 C 9.066406 -3.414062 10.09375 -2.96875 11.3125 -2.96875 Z M 11.3125 -2.96875 "/></g></g></g><g fill="#000000" fill-opacity="1"><g transform="translate(149.244471, 53.890041)"><g><path d="M 11.578125 0.8125 C 10.285156 0.8125 9.097656 0.585938 8.015625 0.140625 C 6.941406 -0.304688 6.007812 -0.925781 5.21875 -1.71875 C 4.4375 -2.507812 3.816406 -3.441406 3.359375 -4.515625 C 2.910156 -5.597656 2.6875 -6.785156 2.6875 -8.078125 L 2.6875 -18.046875 C 2.6875 -19.335938 2.910156 -20.519531 3.359375 -21.59375 C 3.816406 -22.675781 4.4375 -23.613281 5.21875 -24.40625 C 6.007812 -25.195312 6.941406 -25.816406 8.015625 -26.265625 C 9.097656 -26.710938 10.285156 -26.9375 11.578125 -26.9375 C 12.867188 -26.9375 14.050781 -26.710938 15.125 -26.265625 C 16.207031 -25.816406 17.144531 -25.195312 17.9375 -24.40625 C 18.726562 -23.613281 19.347656 -22.675781 19.796875 -21.59375 C 20.242188 -20.519531 20.46875 -19.335938 20.46875 -18.046875 L 20.46875 -13.46875 C 20.46875 -12.925781 20.28125 -12.429688 19.90625 -11.984375 C 19.53125 -11.535156 19 -11.3125 18.3125 -11.3125 L 7 -11.3125 L 7 -8.078125 C 7 -6.460938 7.421875 -5.207031 8.265625 -4.3125 C 9.109375 -3.414062 10.210938 -2.96875 11.578125 -2.96875 C 12.804688 -2.96875 13.734375 -3.207031 14.359375 -3.6875 C 14.984375 -4.175781 15.492188 -4.832031 15.890625 -5.65625 C 16.179688 -6.195312 16.476562 -6.597656 16.78125 -6.859375 C 17.082031 -7.128906 17.503906 -7.265625 18.046875 -7.265625 C 18.585938 -7.265625 19.035156 -7.085938 19.390625 -6.734375 C 19.753906 -6.378906 19.9375 -5.929688 19.9375 -5.390625 C 19.9375 -5.171875 19.914062 -4.976562 19.875 -4.8125 C 19.84375 -4.65625 19.804688 -4.523438 19.765625 -4.421875 C 19.734375 -4.273438 19.703125 -4.148438 19.671875 -4.046875 C 19.453125 -3.503906 19.125 -2.945312 18.6875 -2.375 C 18.257812 -1.800781 17.703125 -1.28125 17.015625 -0.8125 C 16.335938 -0.34375 15.550781 0.0390625 14.65625 0.34375 C 13.757812 0.65625 12.734375 0.8125 11.578125 0.8125 Z M 16.15625 -15.078125 L 16.15625 -18.046875 C 16.15625 -19.660156 15.734375 -20.914062 14.890625 -21.8125 C 14.046875 -22.71875 12.941406 -23.171875 11.578125 -23.171875 C 10.210938 -23.171875 9.109375 -22.71875 8.265625 -21.8125 C 7.421875 -20.914062 7 -19.660156 7 -18.046875 L 7 -15.078125 Z M 16.15625 -15.078125 "/></g></g></g><g fill="#000000" fill-opacity="1"><g transform="translate(172.138978, 53.890041)"><g><path d="M 9.421875 0.8125 C 8.273438 0.8125 7.242188 0.65625 6.328125 0.34375 C 5.410156 0.0390625 4.617188 -0.34375 3.953125 -0.8125 C 3.296875 -1.28125 2.75 -1.800781 2.3125 -2.375 C 1.882812 -2.945312 1.5625 -3.503906 1.34375 -4.046875 C 1.269531 -4.148438 1.21875 -4.273438 1.1875 -4.421875 C 1.113281 -4.703125 1.078125 -5.023438 1.078125 -5.390625 C 1.078125 -5.929688 1.253906 -6.378906 1.609375 -6.734375 C 1.972656 -7.085938 2.425781 -7.265625 2.96875 -7.265625 C 3.5 -7.265625 3.914062 -7.128906 4.21875 -6.859375 C 4.53125 -6.597656 4.832031 -6.195312 5.125 -5.65625 C 5.507812 -4.832031 6.015625 -4.175781 6.640625 -3.6875 C 7.273438 -3.207031 8.203125 -2.96875 9.421875 -2.96875 C 10.503906 -2.96875 11.40625 -3.332031 12.125 -4.0625 C 12.84375 -4.800781 13.203125 -5.78125 13.203125 -7 C 13.203125 -7.9375 12.921875 -8.691406 12.359375 -9.265625 C 11.804688 -9.835938 11.109375 -10.335938 10.265625 -10.765625 C 9.421875 -11.203125 8.515625 -11.617188 7.546875 -12.015625 C 6.578125 -12.410156 5.671875 -12.921875 4.828125 -13.546875 C 3.984375 -14.179688 3.28125 -14.972656 2.71875 -15.921875 C 2.164062 -16.867188 1.890625 -18.117188 1.890625 -19.671875 C 1.890625 -20.671875 2.078125 -21.609375 2.453125 -22.484375 C 2.828125 -23.367188 3.351562 -24.144531 4.03125 -24.8125 C 4.71875 -25.476562 5.519531 -26 6.4375 -26.375 C 7.351562 -26.75 8.347656 -26.9375 9.421875 -26.9375 C 10.429688 -26.9375 11.335938 -26.800781 12.140625 -26.53125 C 12.953125 -26.257812 13.660156 -25.914062 14.265625 -25.5 C 14.878906 -25.09375 15.382812 -24.65625 15.78125 -24.1875 C 16.175781 -23.71875 16.484375 -23.285156 16.703125 -22.890625 C 16.734375 -22.828125 16.769531 -22.722656 16.8125 -22.578125 C 16.84375 -22.460938 16.875 -22.34375 16.90625 -22.21875 C 16.945312 -22.09375 16.96875 -21.957031 16.96875 -21.8125 C 16.96875 -21.28125 16.785156 -20.832031 16.421875 -20.46875 C 16.066406 -20.113281 15.617188 -19.9375 15.078125 -19.9375 C 14.472656 -19.9375 14 -20.101562 13.65625 -20.4375 C 13.3125 -20.78125 12.976562 -21.148438 12.65625 -21.546875 C 12.332031 -21.941406 11.925781 -22.3125 11.4375 -22.65625 C 10.957031 -23 10.285156 -23.171875 9.421875 -23.171875 C 8.492188 -23.171875 7.722656 -22.851562 7.109375 -22.21875 C 6.503906 -21.59375 6.203125 -20.742188 6.203125 -19.671875 C 6.203125 -18.734375 6.476562 -17.976562 7.03125 -17.40625 C 7.582031 -16.832031 8.28125 -16.328125 9.125 -15.890625 C 9.96875 -15.460938 10.875 -15.050781 11.84375 -14.65625 C 12.820312 -14.257812 13.734375 -13.742188 14.578125 -13.109375 C 15.421875 -12.484375 16.117188 -11.6875 16.671875 -10.71875 C 17.234375 -9.75 17.515625 -8.507812 17.515625 -7 C 17.515625 -5.925781 17.304688 -4.910156 16.890625 -3.953125 C 16.472656 -3.003906 15.90625 -2.179688 15.1875 -1.484375 C 14.46875 -0.785156 13.613281 -0.226562 12.625 0.1875 C 11.644531 0.601562 10.578125 0.8125 9.421875 0.8125 Z M 9.421875 0.8125 "/></g></g></g><g fill="#000000" fill-opacity="1"><g transform="translate(191.262622, 53.890041)"><g><path d="M 5.125 0.265625 C 4.4375 0.265625 3.90625 0.0390625 3.53125 -0.40625 C 3.15625 -0.851562 2.96875 -1.347656 2.96875 -1.890625 L 2.96875 -35.28125 C 2.96875 -35.820312 3.15625 -36.316406 3.53125 -36.765625 C 3.90625 -37.210938 4.4375 -37.4375 5.125 -37.4375 C 5.800781 -37.4375 6.328125 -37.210938 6.703125 -36.765625 C 7.078125 -36.316406 7.265625 -35.820312 7.265625 -35.28125 L 7.265625 -24.78125 L 7.546875 -24.78125 C 7.867188 -25.175781 8.28125 -25.535156 8.78125 -25.859375 C 9.207031 -26.148438 9.734375 -26.398438 10.359375 -26.609375 C 10.992188 -26.828125 11.757812 -26.9375 12.65625 -26.9375 C 13.59375 -26.9375 14.519531 -26.710938 15.4375 -26.265625 C 16.351562 -25.816406 17.160156 -25.195312 17.859375 -24.40625 C 18.554688 -23.613281 19.117188 -22.675781 19.546875 -21.59375 C 19.984375 -20.519531 20.203125 -19.335938 20.203125 -18.046875 L 20.203125 -1.890625 C 20.203125 -1.347656 20.015625 -0.851562 19.640625 -0.40625 C 19.265625 0.0390625 18.734375 0.265625 18.046875 0.265625 C 17.367188 0.265625 16.835938 0.0390625 16.453125 -0.40625 C 16.078125 -0.851562 15.890625 -1.347656 15.890625 -1.890625 L 15.890625 -18.046875 C 15.890625 -19.660156 15.476562 -20.914062 14.65625 -21.8125 C 13.832031 -22.71875 12.804688 -23.171875 11.578125 -23.171875 C 10.359375 -23.171875 9.332031 -22.71875 8.5 -21.8125 C 7.675781 -20.914062 7.265625 -19.660156 7.265625 -18.046875 L 7.265625 -1.890625 C 7.265625 -1.347656 7.078125 -0.851562 6.703125 -0.40625 C 6.328125 0.0390625 5.800781 0.265625 5.125 0.265625 Z M 5.125 0.265625 "/></g></g></g><g fill="#000000" fill-opacity="1"><g transform="translate(214.426474, 53.890041)"><g/></g></g><g fill="#000000" fill-opacity="1"><g transform="translate(224.122977, 53.890041)"><g><path d="M 11.578125 1.078125 C 10.210938 1.078125 9.019531 0.921875 8 0.609375 C 6.976562 0.304688 6.078125 -0.101562 5.296875 -0.625 C 4.523438 -1.144531 3.863281 -1.742188 3.3125 -2.421875 C 2.757812 -3.109375 2.285156 -3.828125 1.890625 -4.578125 C 1.742188 -4.898438 1.597656 -5.207031 1.453125 -5.5 C 1.203125 -6.070312 1.078125 -6.570312 1.078125 -7 C 1.078125 -7.539062 1.265625 -8.035156 1.640625 -8.484375 C 2.015625 -8.929688 2.546875 -9.15625 3.234375 -9.15625 C 3.773438 -9.15625 4.210938 -8.984375 4.546875 -8.640625 C 4.890625 -8.304688 5.171875 -7.847656 5.390625 -7.265625 C 5.929688 -5.898438 6.691406 -4.796875 7.671875 -3.953125 C 8.660156 -3.109375 9.960938 -2.6875 11.578125 -2.6875 C 13.484375 -2.6875 15.035156 -3.316406 16.234375 -4.578125 C 17.441406 -5.835938 18.046875 -7.546875 18.046875 -9.703125 C 18.046875 -11.203125 17.648438 -12.4375 16.859375 -13.40625 C 16.066406 -14.382812 15.066406 -15.222656 13.859375 -15.921875 C 12.660156 -16.617188 11.359375 -17.289062 9.953125 -17.9375 C 8.554688 -18.582031 7.253906 -19.363281 6.046875 -20.28125 C 4.847656 -21.195312 3.851562 -22.316406 3.0625 -23.640625 C 2.28125 -24.972656 1.890625 -26.703125 1.890625 -28.828125 C 1.890625 -30.296875 2.128906 -31.640625 2.609375 -32.859375 C 3.097656 -34.085938 3.769531 -35.140625 4.625 -36.015625 C 5.488281 -36.890625 6.515625 -37.570312 7.703125 -38.0625 C 8.890625 -38.550781 10.179688 -38.796875 11.578125 -38.796875 C 12.804688 -38.796875 13.90625 -38.640625 14.875 -38.328125 C 15.84375 -38.023438 16.71875 -37.613281 17.5 -37.09375 C 18.289062 -36.570312 18.972656 -35.96875 19.546875 -35.28125 C 20.128906 -34.601562 20.617188 -33.890625 21.015625 -33.140625 C 21.085938 -32.921875 21.175781 -32.703125 21.28125 -32.484375 C 21.351562 -32.304688 21.414062 -32.097656 21.46875 -31.859375 C 21.519531 -31.628906 21.546875 -31.425781 21.546875 -31.25 C 21.546875 -30.5625 21.363281 -30.03125 21 -29.65625 C 20.644531 -29.28125 20.203125 -29.09375 19.671875 -29.09375 C 18.628906 -29.09375 17.816406 -29.722656 17.234375 -30.984375 C 16.703125 -32.203125 15.96875 -33.175781 15.03125 -33.90625 C 14.09375 -34.644531 12.941406 -35.015625 11.578125 -35.015625 C 10.078125 -35.015625 8.804688 -34.457031 7.765625 -33.34375 C 6.722656 -32.226562 6.203125 -30.722656 6.203125 -28.828125 C 6.203125 -27.273438 6.59375 -26.023438 7.375 -25.078125 C 8.164062 -24.128906 9.160156 -23.300781 10.359375 -22.59375 C 11.566406 -21.894531 12.867188 -21.222656 14.265625 -20.578125 C 15.671875 -19.929688 16.972656 -19.148438 18.171875 -18.234375 C 19.378906 -17.316406 20.378906 -16.191406 21.171875 -14.859375 C 21.960938 -13.535156 22.359375 -11.816406 22.359375 -9.703125 C 22.359375 -8.078125 22.097656 -6.597656 21.578125 -5.265625 C 21.054688 -3.941406 20.328125 -2.8125 19.390625 -1.875 C 18.460938 -0.945312 17.332031 -0.222656 16 0.296875 C 14.664062 0.816406 13.191406 1.078125 11.578125 1.078125 Z M 11.578125 1.078125 "/></g></g></g><g fill="#000000" fill-opacity="1"><g transform="translate(248.094864, 53.890041)"><g><path d="M 11.578125 0.8125 C 10.285156 0.8125 9.097656 0.585938 8.015625 0.140625 C 6.941406 -0.304688 6.007812 -0.925781 5.21875 -1.71875 C 4.4375 -2.507812 3.816406 -3.441406 3.359375 -4.515625 C 2.910156 -5.597656 2.6875 -6.785156 2.6875 -8.078125 L 2.6875 -18.046875 C 2.6875 -19.335938 2.910156 -20.519531 3.359375 -21.59375 C 3.816406 -22.675781 4.4375 -23.613281 5.21875 -24.40625 C 6.007812 -25.195312 6.941406 -25.816406 8.015625 -26.265625 C 9.097656 -26.710938 10.285156 -26.9375 11.578125 -26.9375 C 12.867188 -26.9375 14.050781 -26.710938 15.125 -26.265625 C 16.207031 -25.816406 17.144531 -25.195312 17.9375 -24.40625 C 18.726562 -23.613281 19.347656 -22.675781 19.796875 -21.59375 C 20.242188 -20.519531 20.46875 -19.335938 20.46875 -18.046875 L 20.46875 -8.078125 C 20.46875 -6.785156 20.242188 -5.597656 19.796875 -4.515625 C 19.347656 -3.441406 18.726562 -2.507812 17.9375 -1.71875 C 17.144531 -0.925781 16.207031 -0.304688 15.125 0.140625 C 14.050781 0.585938 12.867188 0.8125 11.578125 0.8125 Z M 11.578125 -2.96875 C 12.941406 -2.96875 14.046875 -3.414062 14.890625 -4.3125 C 15.734375 -5.207031 16.15625 -6.460938 16.15625 -8.078125 L 16.15625 -18.046875 C 16.15625 -19.660156 15.734375 -20.914062 14.890625 -21.8125 C 14.046875 -22.71875 12.941406 -23.171875 11.578125 -23.171875 C 10.210938 -23.171875 9.109375 -22.71875 8.265625 -21.8125 C 7.421875 -20.914062 7 -19.660156 7 -18.046875 L 7 -8.078125 C 7 -6.460938 7.421875 -5.207031 8.265625 -4.3125 C 9.109375 -3.414062 10.210938 -2.96875 11.578125 -2.96875 Z M 11.578125 -2.96875 "/></g></g></g><g fill="#000000" fill-opacity="1"><g transform="translate(271.258716, 53.890041)"><g><path d="M 11.578125 0.8125 C 10.285156 0.8125 9.097656 0.585938 8.015625 0.140625 C 6.941406 -0.304688 6.007812 -0.925781 5.21875 -1.71875 C 4.4375 -2.507812 3.816406 -3.441406 3.359375 -4.515625 C 2.910156 -5.597656 2.6875 -6.785156 2.6875 -8.078125 L 2.6875 -18.046875 C 2.6875 -19.335938 2.910156 -20.519531 3.359375 -21.59375 C 3.816406 -22.675781 4.4375 -23.613281 5.21875 -24.40625 C 6.007812 -25.195312 6.941406 -25.816406 8.015625 -26.265625 C 9.097656 -26.710938 10.285156 -26.9375 11.578125 -26.9375 C 12.734375 -26.9375 13.757812 -26.78125 14.65625 -26.46875 C 15.550781 -26.164062 16.335938 -25.78125 17.015625 -25.3125 C 17.703125 -24.851562 18.257812 -24.332031 18.6875 -23.75 C 19.125 -23.175781 19.453125 -22.625 19.671875 -22.09375 C 19.703125 -21.976562 19.734375 -21.851562 19.765625 -21.71875 C 19.804688 -21.601562 19.84375 -21.457031 19.875 -21.28125 C 19.914062 -21.101562 19.9375 -20.921875 19.9375 -20.734375 C 19.9375 -20.203125 19.753906 -19.753906 19.390625 -19.390625 C 19.035156 -19.035156 18.585938 -18.859375 18.046875 -18.859375 C 17.503906 -18.859375 17.082031 -18.992188 16.78125 -19.265625 C 16.476562 -19.535156 16.179688 -19.9375 15.890625 -20.46875 C 15.492188 -21.300781 14.984375 -21.957031 14.359375 -22.4375 C 13.734375 -22.925781 12.804688 -23.171875 11.578125 -23.171875 C 10.210938 -23.171875 9.109375 -22.71875 8.265625 -21.8125 C 7.421875 -20.914062 7 -19.660156 7 -18.046875 L 7 -8.078125 C 7 -6.460938 7.421875 -5.207031 8.265625 -4.3125 C 9.109375 -3.414062 10.210938 -2.96875 11.578125 -2.96875 C 12.804688 -2.96875 13.742188 -3.234375 14.390625 -3.765625 C 15.035156 -4.304688 15.625 -5.117188 16.15625 -6.203125 C 16.445312 -6.734375 16.742188 -7.132812 17.046875 -7.40625 C 17.359375 -7.675781 17.78125 -7.8125 18.3125 -7.8125 C 18.851562 -7.8125 19.300781 -7.628906 19.65625 -7.265625 C 20.019531 -6.910156 20.203125 -6.460938 20.203125 -5.921875 C 20.203125 -5.710938 20.179688 -5.523438 20.140625 -5.359375 C 20.109375 -5.203125 20.078125 -5.066406 20.046875 -4.953125 C 20.003906 -4.804688 19.96875 -4.679688 19.9375 -4.578125 C 19.644531 -3.898438 19.265625 -3.234375 18.796875 -2.578125 C 18.335938 -1.929688 17.765625 -1.359375 17.078125 -0.859375 C 16.398438 -0.359375 15.601562 0.0390625 14.6875 0.34375 C 13.769531 0.65625 12.734375 0.8125 11.578125 0.8125 Z M 11.578125 0.8125 "/></g></g></g><g fill="#000000" fill-opacity="1"><g transform="translate(292.537136, 53.890041)"><g><path d="M 5.125 0.265625 C 4.4375 0.265625 3.90625 0.0390625 3.53125 -0.40625 C 3.15625 -0.851562 2.96875 -1.347656 2.96875 -1.890625 L 2.96875 -24.25 C 2.96875 -24.78125 3.15625 -25.269531 3.53125 -25.71875 C 3.90625 -26.175781 4.4375 -26.40625 5.125 -26.40625 C 5.800781 -26.40625 6.328125 -26.175781 6.703125 -25.71875 C 7.078125 -25.269531 7.265625 -24.78125 7.265625 -24.25 L 7.265625 -1.890625 C 7.265625 -1.347656 7.078125 -0.851562 6.703125 -0.40625 C 6.328125 0.0390625 5.800781 0.265625 5.125 0.265625 Z M 5.125 -32.59375 C 4.4375 -32.59375 3.859375 -32.832031 3.390625 -33.3125 C 2.921875 -33.800781 2.6875 -34.457031 2.6875 -35.28125 C 2.6875 -36.113281 2.921875 -36.769531 3.390625 -37.25 C 3.859375 -37.738281 4.4375 -37.984375 5.125 -37.984375 C 5.800781 -37.984375 6.375 -37.738281 6.84375 -37.25 C 7.3125 -36.769531 7.546875 -36.113281 7.546875 -35.28125 C 7.546875 -34.457031 7.3125 -33.800781 6.84375 -33.3125 C 6.375 -32.832031 5.800781 -32.59375 5.125 -32.59375 Z M 5.125 -32.59375 "/></g></g></g><g fill="#000000" fill-opacity="1"><g transform="translate(302.772329, 53.890041)"><g><path d="M 11.578125 0.8125 C 10.285156 0.8125 9.097656 0.585938 8.015625 0.140625 C 6.941406 -0.304688 6.007812 -0.925781 5.21875 -1.71875 C 4.4375 -2.507812 3.816406 -3.441406 3.359375 -4.515625 C 2.910156 -5.597656 2.6875 -6.785156 2.6875 -8.078125 L 2.6875 -18.046875 C 2.6875 -19.335938 2.910156 -20.519531 3.359375 -21.59375 C 3.816406 -22.675781 4.4375 -23.613281 5.21875 -24.40625 C 6.007812 -25.195312 6.941406 -25.816406 8.015625 -26.265625 C 9.097656 -26.710938 10.285156 -26.9375 11.578125 -26.9375 C 12.867188 -26.9375 14.050781 -26.710938 15.125 -26.265625 C 16.207031 -25.816406 17.144531 -25.195312 17.9375 -24.40625 C 18.726562 -23.613281 19.347656 -22.675781 19.796875 -21.59375 C 20.242188 -20.519531 20.46875 -19.335938 20.46875 -18.046875 L 20.46875 -8.078125 C 20.46875 -6.785156 20.242188 -5.597656 19.796875 -4.515625 C 19.347656 -3.441406 18.726562 -2.507812 17.9375 -1.71875 C 17.144531 -0.925781 16.207031 -0.304688 15.125 0.140625 C 14.050781 0.585938 12.867188 0.8125 11.578125 0.8125 Z M 11.578125 -2.96875 C 12.941406 -2.96875 14.046875 -3.414062 14.890625 -4.3125 C 15.734375 -5.207031 16.15625 -6.460938 16.15625 -8.078125 L 16.15625 -18.046875 C 16.15625 -19.660156 15.734375 -20.914062 14.890625 -21.8125 C 14.046875 -22.71875 12.941406 -23.171875 11.578125 -23.171875 C 10.210938 -23.171875 9.109375 -22.71875 8.265625 -21.8125 C 7.421875 -20.914062 7 -19.660156 7 -18.046875 L 7 -8.078125 C 7 -6.460938 7.421875 -5.207031 8.265625 -4.3125 C 9.109375 -3.414062 10.210938 -2.96875 11.578125 -2.96875 Z M 11.578125 -2.96875 "/></g></g></g><g fill="#000000" fill-opacity="1"><g transform="translate(325.936181, 53.890041)"><g><path d="M 3.765625 -16.15625 C 3.234375 -16.15625 2.738281 -16.34375 2.28125 -16.71875 C 1.832031 -17.101562 1.609375 -17.632812 1.609375 -18.3125 C 1.609375 -19 1.832031 -19.53125 2.28125 -19.90625 C 2.738281 -20.28125 3.234375 -20.46875 3.765625 -20.46875 L 14 -20.46875 C 14.539062 -20.46875 15.035156 -20.28125 15.484375 -19.90625 C 15.929688 -19.53125 16.15625 -19 16.15625 -18.3125 C 16.15625 -17.632812 15.929688 -17.101562 15.484375 -16.71875 C 15.035156 -16.34375 14.539062 -16.15625 14 -16.15625 Z M 3.765625 -16.15625 "/></g></g></g><g fill="#000000" fill-opacity="1"><g transform="translate(343.713083, 53.890041)"><g><path d="M 14.546875 1.078125 C 12.859375 1.078125 11.320312 0.796875 9.9375 0.234375 C 8.550781 -0.316406 7.351562 -1.09375 6.34375 -2.09375 C 5.34375 -3.101562 4.570312 -4.316406 4.03125 -5.734375 C 3.5 -7.148438 3.234375 -8.738281 3.234375 -10.5 L 3.234375 -27.203125 C 3.234375 -28.960938 3.5 -30.550781 4.03125 -31.96875 C 4.570312 -33.394531 5.34375 -34.609375 6.34375 -35.609375 C 7.351562 -36.617188 8.550781 -37.398438 9.9375 -37.953125 C 11.320312 -38.515625 12.859375 -38.796875 14.546875 -38.796875 C 15.878906 -38.796875 17.066406 -38.640625 18.109375 -38.328125 C 19.148438 -38.023438 20.054688 -37.613281 20.828125 -37.09375 C 21.597656 -36.570312 22.257812 -35.96875 22.8125 -35.28125 C 23.375 -34.601562 23.851562 -33.890625 24.25 -33.140625 C 24.3125 -32.921875 24.398438 -32.703125 24.515625 -32.484375 C 24.585938 -32.304688 24.648438 -32.097656 24.703125 -31.859375 C 24.753906 -31.628906 24.78125 -31.425781 24.78125 -31.25 C 24.78125 -30.5625 24.597656 -30.03125 24.234375 -29.65625 C 23.878906 -29.28125 23.429688 -29.09375 22.890625 -29.09375 C 21.847656 -29.09375 21.039062 -29.722656 20.46875 -30.984375 C 19.9375 -32.203125 19.21875 -33.175781 18.3125 -33.90625 C 17.414062 -34.644531 16.160156 -35.015625 14.546875 -35.015625 C 12.492188 -35.015625 10.8125 -34.320312 9.5 -32.9375 C 8.195312 -31.5625 7.546875 -29.648438 7.546875 -27.203125 L 7.546875 -10.5 C 7.546875 -8.0625 8.195312 -6.148438 9.5 -4.765625 C 10.8125 -3.378906 12.492188 -2.6875 14.546875 -2.6875 C 16.304688 -2.6875 17.6875 -3.109375 18.6875 -3.953125 C 19.695312 -4.796875 20.472656 -5.898438 21.015625 -7.265625 C 21.222656 -7.847656 21.5 -8.304688 21.84375 -8.640625 C 22.1875 -8.984375 22.628906 -9.15625 23.171875 -9.15625 C 23.847656 -9.15625 24.375 -8.929688 24.75 -8.484375 C 25.132812 -8.035156 25.328125 -7.539062 25.328125 -7 C 25.328125 -6.789062 25.28125 -6.550781 25.1875 -6.28125 C 25.09375 -6.007812 24.992188 -5.75 24.890625 -5.5 C 24.742188 -5.207031 24.617188 -4.898438 24.515625 -4.578125 C 24.117188 -3.828125 23.640625 -3.109375 23.078125 -2.421875 C 22.523438 -1.742188 21.851562 -1.144531 21.0625 -0.625 C 20.269531 -0.101562 19.332031 0.304688 18.25 0.609375 C 17.175781 0.921875 15.941406 1.078125 14.546875 1.078125 Z M 14.546875 1.078125 "/></g></g></g><g fill="#000000" fill-opacity="1"><g transform="translate(370.378454, 53.890041)"><g><path d="M 10.5 0.8125 C 9.570312 0.8125 8.648438 0.585938 7.734375 0.140625 C 6.816406 -0.304688 6.003906 -0.925781 5.296875 -1.71875 C 4.597656 -2.507812 4.035156 -3.441406 3.609375 -4.515625 C 3.179688 -5.597656 2.96875 -6.785156 2.96875 -8.078125 L 2.96875 -24.25 C 2.96875 -24.78125 3.15625 -25.269531 3.53125 -25.71875 C 3.90625 -26.175781 4.4375 -26.40625 5.125 -26.40625 C 5.800781 -26.40625 6.328125 -26.175781 6.703125 -25.71875 C 7.078125 -25.269531 7.265625 -24.78125 7.265625 -24.25 L 7.265625 -8.078125 C 7.265625 -6.460938 7.675781 -5.207031 8.5 -4.3125 C 9.332031 -3.414062 10.359375 -2.96875 11.578125 -2.96875 C 12.804688 -2.96875 13.832031 -3.414062 14.65625 -4.3125 C 15.476562 -5.207031 15.890625 -6.460938 15.890625 -8.078125 L 15.890625 -24.25 C 15.890625 -24.78125 16.078125 -25.269531 16.453125 -25.71875 C 16.835938 -26.175781 17.367188 -26.40625 18.046875 -26.40625 C 18.734375 -26.40625 19.265625 -26.175781 19.640625 -25.71875 C 20.015625 -25.269531 20.203125 -24.78125 20.203125 -24.25 L 20.203125 -1.890625 C 20.203125 -1.347656 20.015625 -0.851562 19.640625 -0.40625 C 19.265625 0.0390625 18.734375 0.265625 18.046875 0.265625 C 17.648438 0.265625 17.316406 0.179688 17.046875 0.015625 C 16.773438 -0.140625 16.550781 -0.320312 16.375 -0.53125 C 16.195312 -0.75 16.035156 -1.019531 15.890625 -1.34375 L 15.625 -1.34375 C 15.300781 -0.945312 14.890625 -0.585938 14.390625 -0.265625 C 13.953125 0.015625 13.410156 0.265625 12.765625 0.484375 C 12.117188 0.703125 11.363281 0.8125 10.5 0.8125 Z M 10.5 0.8125 "/></g></g></g><g fill="#000000" fill-opacity="1"><g transform="translate(393.542288, 53.890041)"><g><path d="M 5.125 0.265625 C 4.4375 0.265625 3.90625 0.0390625 3.53125 -0.40625 C 3.15625 -0.851562 2.96875 -1.347656 2.96875 -1.890625 L 2.96875 -35.28125 C 2.96875 -35.820312 3.15625 -36.316406 3.53125 -36.765625 C 3.90625 -37.210938 4.4375 -37.4375 5.125 -37.4375 C 5.800781 -37.4375 6.328125 -37.210938 6.703125 -36.765625 C 7.078125 -36.316406 7.265625 -35.820312 7.265625 -35.28125 L 7.265625 -1.890625 C 7.265625 -1.347656 7.078125 -0.851562 6.703125 -0.40625 C 6.328125 0.0390625 5.800781 0.265625 5.125 0.265625 Z M 5.125 0.265625 "/></g></g></g><g fill="#000000" fill-opacity="1"><g transform="translate(403.777499, 53.890041)"><g><path d="M 10.234375 0 C 9.367188 0 8.539062 -0.171875 7.75 -0.515625 C 6.96875 -0.859375 6.28125 -1.332031 5.6875 -1.9375 C 5.09375 -2.550781 4.625 -3.269531 4.28125 -4.09375 C 3.9375 -4.914062 3.765625 -5.796875 3.765625 -6.734375 L 3.765625 -22.09375 L 2.421875 -22.09375 C 1.878906 -22.09375 1.425781 -22.269531 1.0625 -22.625 C 0.707031 -22.988281 0.53125 -23.4375 0.53125 -23.96875 C 0.53125 -24.507812 0.707031 -24.957031 1.0625 -25.3125 C 1.425781 -25.675781 1.878906 -25.859375 2.421875 -25.859375 L 3.765625 -25.859375 L 3.765625 -30.984375 C 3.765625 -31.515625 3.953125 -32.003906 4.328125 -32.453125 C 4.710938 -32.910156 5.242188 -33.140625 5.921875 -33.140625 C 6.609375 -33.140625 7.140625 -32.910156 7.515625 -32.453125 C 7.890625 -32.003906 8.078125 -31.515625 8.078125 -30.984375 L 8.078125 -25.859375 L 12.390625 -25.859375 C 12.929688 -25.859375 13.378906 -25.675781 13.734375 -25.3125 C 14.097656 -24.957031 14.28125 -24.507812 14.28125 -23.96875 C 14.28125 -23.4375 14.097656 -22.988281 13.734375 -22.625 C 13.378906 -22.269531 12.929688 -22.09375 12.390625 -22.09375 L 8.078125 -22.09375 L 8.078125 -6.734375 C 8.078125 -5.796875 8.300781 -5.066406 8.75 -4.546875 C 9.195312 -4.023438 9.691406 -3.765625 10.234375 -3.765625 L 13.734375 -3.765625 C 14.273438 -3.765625 14.722656 -3.582031 15.078125 -3.21875 C 15.441406 -2.863281 15.625 -2.421875 15.625 -1.890625 C 15.625 -1.347656 15.441406 -0.894531 15.078125 -0.53125 C 14.722656 -0.175781 14.273438 0 13.734375 0 Z M 10.234375 0 "/></g></g></g><g fill="#000000" fill-opacity="1"><g transform="translate(420.207659, 53.890041)"><g><path d="M 10.5 0.8125 C 9.570312 0.8125 8.648438 0.585938 7.734375 0.140625 C 6.816406 -0.304688 6.003906 -0.925781 5.296875 -1.71875 C 4.597656 -2.507812 4.035156 -3.441406 3.609375 -4.515625 C 3.179688 -5.597656 2.96875 -6.785156 2.96875 -8.078125 L 2.96875 -24.25 C 2.96875 -24.78125 3.15625 -25.269531 3.53125 -25.71875 C 3.90625 -26.175781 4.4375 -26.40625 5.125 -26.40625 C 5.800781 -26.40625 6.328125 -26.175781 6.703125 -25.71875 C 7.078125 -25.269531 7.265625 -24.78125 7.265625 -24.25 L 7.265625 -8.078125 C 7.265625 -6.460938 7.675781 -5.207031 8.5 -4.3125 C 9.332031 -3.414062 10.359375 -2.96875 11.578125 -2.96875 C 12.804688 -2.96875 13.832031 -3.414062 14.65625 -4.3125 C 15.476562 -5.207031 15.890625 -6.460938 15.890625 -8.078125 L 15.890625 -24.25 C 15.890625 -24.78125 16.078125 -25.269531 16.453125 -25.71875 C 16.835938 -26.175781 17.367188 -26.40625 18.046875 -26.40625 C 18.734375 -26.40625 19.265625 -26.175781 19.640625 -25.71875 C 20.015625 -25.269531 20.203125 -24.78125 20.203125 -24.25 L 20.203125 -1.890625 C 20.203125 -1.347656 20.015625 -0.851562 19.640625 -0.40625 C 19.265625 0.0390625 18.734375 0.265625 18.046875 0.265625 C 17.648438 0.265625 17.316406 0.179688 17.046875 0.015625 C 16.773438 -0.140625 16.550781 -0.320312 16.375 -0.53125 C 16.195312 -0.75 16.035156 -1.019531 15.890625 -1.34375 L 15.625 -1.34375 C 15.300781 -0.945312 14.890625 -0.585938 14.390625 -0.265625 C 13.953125 0.015625 13.410156 0.265625 12.765625 0.484375 C 12.117188 0.703125 11.363281 0.8125 10.5 0.8125 Z M 10.5 0.8125 "/></g></g></g><g fill="#000000" fill-opacity="1"><g transform="translate(443.371493, 53.890041)"><g><path d="M 5.125 0.265625 C 4.4375 0.265625 3.90625 0.0390625 3.53125 -0.40625 C 3.15625 -0.851562 2.96875 -1.347656 2.96875 -1.890625 L 2.96875 -24.25 C 2.96875 -24.78125 3.15625 -25.269531 3.53125 -25.71875 C 3.90625 -26.175781 4.4375 -26.40625 5.125 -26.40625 C 5.507812 -26.40625 5.835938 -26.3125 6.109375 -26.125 C 6.378906 -25.945312 6.601562 -25.769531 6.78125 -25.59375 C 6.96875 -25.34375 7.128906 -25.070312 7.265625 -24.78125 L 7.546875 -24.78125 C 7.753906 -25.101562 8.039062 -25.410156 8.40625 -25.703125 C 8.6875 -25.953125 9.070312 -26.175781 9.5625 -26.375 C 10.050781 -26.570312 10.632812 -26.671875 11.3125 -26.671875 L 14 -26.671875 C 14.539062 -26.671875 14.988281 -26.488281 15.34375 -26.125 C 15.707031 -25.769531 15.890625 -25.320312 15.890625 -24.78125 C 15.890625 -24.238281 15.707031 -23.785156 15.34375 -23.421875 C 14.988281 -23.066406 14.539062 -22.890625 14 -22.890625 L 10.78125 -22.890625 C 9.84375 -22.890625 9.019531 -22.503906 8.3125 -21.734375 C 7.613281 -20.960938 7.265625 -19.820312 7.265625 -18.3125 L 7.265625 -1.890625 C 7.265625 -1.347656 7.078125 -0.851562 6.703125 -0.40625 C 6.328125 0.0390625 5.800781 0.265625 5.125 0.265625 Z M 5.125 0.265625 "/></g></g></g><g fill="#000000" fill-opacity="1"><g transform="translate(459.262999, 53.890041)"><g><path d="M 9.15625 0.8125 C 8.226562 0.8125 7.320312 0.601562 6.4375 0.1875 C 5.5625 -0.226562 4.78125 -0.796875 4.09375 -1.515625 C 3.414062 -2.234375 2.878906 -3.082031 2.484375 -4.0625 C 2.085938 -5.050781 1.890625 -6.117188 1.890625 -7.265625 C 1.890625 -8.421875 2.09375 -9.488281 2.5 -10.46875 C 2.914062 -11.457031 3.484375 -12.3125 4.203125 -13.03125 C 4.921875 -13.75 5.773438 -14.316406 6.765625 -14.734375 C 7.753906 -15.148438 8.820312 -15.359375 9.96875 -15.359375 L 14.28125 -15.359375 L 14.28125 -18.59375 C 14.28125 -19.957031 13.875 -21.0625 13.0625 -21.90625 C 12.257812 -22.75 11.316406 -23.171875 10.234375 -23.171875 C 9.367188 -23.171875 8.6875 -23 8.1875 -22.65625 C 7.6875 -22.3125 7.253906 -21.941406 6.890625 -21.546875 C 6.535156 -21.148438 6.195312 -20.78125 5.875 -20.4375 C 5.550781 -20.101562 5.117188 -19.9375 4.578125 -19.9375 C 4.035156 -19.9375 3.582031 -20.113281 3.21875 -20.46875 C 2.863281 -20.832031 2.6875 -21.28125 2.6875 -21.8125 C 2.6875 -22.207031 2.78125 -22.585938 2.96875 -22.953125 C 3.039062 -23.128906 3.128906 -23.289062 3.234375 -23.4375 C 3.453125 -23.757812 3.75 -24.125 4.125 -24.53125 C 4.5 -24.945312 4.960938 -25.332031 5.515625 -25.6875 C 6.078125 -26.050781 6.753906 -26.347656 7.546875 -26.578125 C 8.335938 -26.816406 9.234375 -26.9375 10.234375 -26.9375 C 11.453125 -26.9375 12.570312 -26.710938 13.59375 -26.265625 C 14.625 -25.816406 15.503906 -25.210938 16.234375 -24.453125 C 16.972656 -23.703125 17.550781 -22.820312 17.96875 -21.8125 C 18.382812 -20.8125 18.59375 -19.738281 18.59375 -18.59375 L 18.59375 -1.890625 C 18.59375 -1.347656 18.398438 -0.851562 18.015625 -0.40625 C 17.640625 0.0390625 17.113281 0.265625 16.4375 0.265625 C 16.039062 0.265625 15.707031 0.179688 15.4375 0.015625 C 15.164062 -0.140625 14.941406 -0.320312 14.765625 -0.53125 C 14.585938 -0.75 14.425781 -1.019531 14.28125 -1.34375 L 14 -1.34375 C 13.675781 -0.945312 13.300781 -0.585938 12.875 -0.265625 C 12.476562 0.015625 11.972656 0.265625 11.359375 0.484375 C 10.753906 0.703125 10.019531 0.8125 9.15625 0.8125 Z M 9.96875 -2.96875 C 10.644531 -2.96875 11.242188 -3.09375 11.765625 -3.34375 C 12.285156 -3.59375 12.742188 -3.859375 13.140625 -4.140625 C 13.578125 -4.503906 13.957031 -4.921875 14.28125 -5.390625 L 14.28125 -11.578125 L 9.96875 -11.578125 C 8.882812 -11.578125 7.984375 -11.203125 7.265625 -10.453125 C 6.554688 -9.703125 6.203125 -8.640625 6.203125 -7.265625 C 6.203125 -5.898438 6.554688 -4.84375 7.265625 -4.09375 C 7.984375 -3.34375 8.882812 -2.96875 9.96875 -2.96875 Z M 9.96875 -2.96875 "/></g></g></g><g fill="#000000" fill-opacity="1"><g transform="translate(480.810728, 53.890041)"><g><path d="M 5.125 0.265625 C 4.4375 0.265625 3.90625 0.0390625 3.53125 -0.40625 C 3.15625 -0.851562 2.96875 -1.347656 2.96875 -1.890625 L 2.96875 -35.28125 C 2.96875 -35.820312 3.15625 -36.316406 3.53125 -36.765625 C 3.90625 -37.210938 4.4375 -37.4375 5.125 -37.4375 C 5.800781 -37.4375 6.328125 -37.210938 6.703125 -36.765625 C 7.078125 -36.316406 7.265625 -35.820312 7.265625 -35.28125 L 7.265625 -1.890625 C 7.265625 -1.347656 7.078125 -0.851562 6.703125 -0.40625 C 6.328125 0.0390625 5.800781 0.265625 5.125 0.265625 Z M 5.125 0.265625 "/></g></g></g><g fill="#000000" fill-opacity="1"><g transform="translate(491.045939, 53.890041)"><g/></g></g><g fill="#000000" fill-opacity="1"><g transform="translate(500.742425, 53.890041)"><g><path d="M 5.65625 0.53125 C 4.976562 0.53125 4.445312 0.304688 4.0625 -0.140625 C 3.6875 -0.585938 3.5 -1.078125 3.5 -1.609375 L 3.5 -35.5625 C 3.5 -36.09375 3.6875 -36.582031 4.0625 -37.03125 C 4.445312 -37.488281 4.976562 -37.71875 5.65625 -37.71875 L 20.46875 -37.71875 C 21.15625 -37.71875 21.6875 -37.535156 22.0625 -37.171875 C 22.4375 -36.816406 22.625 -36.367188 22.625 -35.828125 C 22.625 -35.285156 22.4375 -34.832031 22.0625 -34.46875 C 21.6875 -34.113281 21.15625 -33.9375 20.46875 -33.9375 L 7.8125 -33.9375 L 7.8125 -19.390625 L 16.96875 -19.390625 C 17.65625 -19.390625 18.1875 -19.207031 18.5625 -18.84375 C 18.9375 -18.488281 19.125 -18.046875 19.125 -17.515625 C 19.125 -16.972656 18.9375 -16.519531 18.5625 -16.15625 C 18.1875 -15.800781 17.65625 -15.625 16.96875 -15.625 L 7.8125 -15.625 L 7.8125 -1.609375 C 7.8125 -1.078125 7.625 -0.585938 7.25 -0.140625 C 6.875 0.304688 6.34375 0.53125 5.65625 0.53125 Z M 5.65625 0.53125 "/></g></g></g><g fill="#000000" fill-opacity="1"><g transform="translate(523.636932, 53.890041)"><g><path d="M 11.578125 0.8125 C 10.285156 0.8125 9.097656 0.585938 8.015625 0.140625 C 6.941406 -0.304688 6.007812 -0.925781 5.21875 -1.71875 C 4.4375 -2.507812 3.816406 -3.441406 3.359375 -4.515625 C 2.910156 -5.597656 2.6875 -6.785156 2.6875 -8.078125 L 2.6875 -18.046875 C 2.6875 -19.335938 2.910156 -20.519531 3.359375 -21.59375 C 3.816406 -22.675781 4.4375 -23.613281 5.21875 -24.40625 C 6.007812 -25.195312 6.941406 -25.816406 8.015625 -26.265625 C 9.097656 -26.710938 10.285156 -26.9375 11.578125 -26.9375 C 12.867188 -26.9375 14.050781 -26.710938 15.125 -26.265625 C 16.207031 -25.816406 17.144531 -25.195312 17.9375 -24.40625 C 18.726562 -23.613281 19.347656 -22.675781 19.796875 -21.59375 C 20.242188 -20.519531 20.46875 -19.335938 20.46875 -18.046875 L 20.46875 -8.078125 C 20.46875 -6.785156 20.242188 -5.597656 19.796875 -4.515625 C 19.347656 -3.441406 18.726562 -2.507812 17.9375 -1.71875 C 17.144531 -0.925781 16.207031 -0.304688 15.125 0.140625 C 14.050781 0.585938 12.867188 0.8125 11.578125 0.8125 Z M 11.578125 -2.96875 C 12.941406 -2.96875 14.046875 -3.414062 14.890625 -4.3125 C 15.734375 -5.207031 16.15625 -6.460938 16.15625 -8.078125 L 16.15625 -18.046875 C 16.15625 -19.660156 15.734375 -20.914062 14.890625 -21.8125 C 14.046875 -22.71875 12.941406 -23.171875 11.578125 -23.171875 C 10.210938 -23.171875 9.109375 -22.71875 8.265625 -21.8125 C 7.421875 -20.914062 7 -19.660156 7 -18.046875 L 7 -8.078125 C 7 -6.460938 7.421875 -5.207031 8.265625 -4.3125 C 9.109375 -3.414062 10.210938 -2.96875 11.578125 -2.96875 Z M 11.578125 -2.96875 "/></g></g></g><g fill="#000000" fill-opacity="1"><g transform="translate(546.800801, 53.890041)"><g><path d="M 5.125 0.265625 C 4.4375 0.265625 3.90625 0.0390625 3.53125 -0.40625 C 3.15625 -0.851562 2.96875 -1.347656 2.96875 -1.890625 L 2.96875 -24.25 C 2.96875 -24.78125 3.15625 -25.269531 3.53125 -25.71875 C 3.90625 -26.175781 4.4375 -26.40625 5.125 -26.40625 C 5.507812 -26.40625 5.835938 -26.3125 6.109375 -26.125 C 6.378906 -25.945312 6.601562 -25.769531 6.78125 -25.59375 C 6.96875 -25.34375 7.128906 -25.070312 7.265625 -24.78125 L 7.546875 -24.78125 C 7.753906 -25.101562 8.039062 -25.410156 8.40625 -25.703125 C 8.6875 -25.953125 9.070312 -26.175781 9.5625 -26.375 C 10.050781 -26.570312 10.632812 -26.671875 11.3125 -26.671875 L 14 -26.671875 C 14.539062 -26.671875 14.988281 -26.488281 15.34375 -26.125 C 15.707031 -25.769531 15.890625 -25.320312 15.890625 -24.78125 C 15.890625 -24.238281 15.707031 -23.785156 15.34375 -23.421875 C 14.988281 -23.066406 14.539062 -22.890625 14 -22.890625 L 10.78125 -22.890625 C 9.84375 -22.890625 9.019531 -22.503906 8.3125 -21.734375 C 7.613281 -20.960938 7.265625 -19.820312 7.265625 -18.3125 L 7.265625 -1.890625 C 7.265625 -1.347656 7.078125 -0.851562 6.703125 -0.40625 C 6.328125 0.0390625 5.800781 0.265625 5.125 0.265625 Z M 5.125 0.265625 "/></g></g></g><g fill="#000000" fill-opacity="1"><g transform="translate(562.692271, 53.890041)"><g><path d="M 10.5 0.8125 C 9.570312 0.8125 8.648438 0.585938 7.734375 0.140625 C 6.816406 -0.304688 6.003906 -0.925781 5.296875 -1.71875 C 4.597656 -2.507812 4.035156 -3.441406 3.609375 -4.515625 C 3.179688 -5.597656 2.96875 -6.785156 2.96875 -8.078125 L 2.96875 -24.25 C 2.96875 -24.78125 3.15625 -25.269531 3.53125 -25.71875 C 3.90625 -26.175781 4.4375 -26.40625 5.125 -26.40625 C 5.800781 -26.40625 6.328125 -26.175781 6.703125 -25.71875 C 7.078125 -25.269531 7.265625 -24.78125 7.265625 -24.25 L 7.265625 -8.078125 C 7.265625 -6.460938 7.675781 -5.207031 8.5 -4.3125 C 9.332031 -3.414062 10.359375 -2.96875 11.578125 -2.96875 C 12.804688 -2.96875 13.832031 -3.414062 14.65625 -4.3125 C 15.476562 -5.207031 15.890625 -6.460938 15.890625 -8.078125 L 15.890625 -24.25 C 15.890625 -24.78125 16.078125 -25.269531 16.453125 -25.71875 C 16.835938 -26.175781 17.367188 -26.40625 18.046875 -26.40625 C 18.734375 -26.40625 19.265625 -26.175781 19.640625 -25.71875 C 20.015625 -25.269531 20.203125 -24.78125 20.203125 -24.25 L 20.203125 -1.890625 C 20.203125 -1.347656 20.015625 -0.851562 19.640625 -0.40625 C 19.265625 0.0390625 18.734375 0.265625 18.046875 0.265625 C 17.648438 0.265625 17.316406 0.179688 17.046875 0.015625 C 16.773438 -0.140625 16.550781 -0.320312 16.375 -0.53125 C 16.195312 -0.75 16.035156 -1.019531 15.890625 -1.34375 L 15.625 -1.34375 C 15.300781 -0.945312 14.890625 -0.585938 14.390625 -0.265625 C 13.953125 0.015625 13.410156 0.265625 12.765625 0.484375 C 12.117188 0.703125 11.363281 0.8125 10.5 0.8125 Z M 10.5 0.8125 "/></g></g></g><g fill="#000000" fill-opacity="1"><g transform="translate(585.856106, 53.890041)"><g><path d="M 5.125 0.265625 C 4.4375 0.265625 3.90625 0.0390625 3.53125 -0.40625 C 3.15625 -0.851562 2.96875 -1.347656 2.96875 -1.890625 L 2.96875 -24.25 C 2.96875 -24.78125 3.15625 -25.269531 3.53125 -25.71875 C 3.90625 -26.175781 4.4375 -26.40625 5.125 -26.40625 C 5.507812 -26.40625 5.835938 -26.3125 6.109375 -26.125 C 6.378906 -25.945312 6.601562 -25.769531 6.78125 -25.59375 C 6.96875 -25.34375 7.128906 -25.070312 7.265625 -24.78125 L 7.546875 -24.78125 C 7.898438 -25.175781 8.296875 -25.535156 8.734375 -25.859375 C 9.128906 -26.148438 9.601562 -26.398438 10.15625 -26.609375 C 10.707031 -26.828125 11.363281 -26.9375 12.125 -26.9375 C 12.945312 -26.9375 13.671875 -26.78125 14.296875 -26.46875 C 14.929688 -26.164062 15.5 -25.816406 16 -25.421875 C 16.539062 -24.992188 17.046875 -24.507812 17.515625 -23.96875 L 17.78125 -23.96875 C 18.132812 -24.507812 18.617188 -24.992188 19.234375 -25.421875 C 19.734375 -25.816406 20.378906 -26.164062 21.171875 -26.46875 C 21.960938 -26.78125 22.894531 -26.9375 23.96875 -26.9375 C 24.832031 -26.9375 25.6875 -26.726562 26.53125 -26.3125 C 27.375 -25.90625 28.128906 -25.332031 28.796875 -24.59375 C 29.460938 -23.851562 29.992188 -22.972656 30.390625 -21.953125 C 30.785156 -20.929688 30.984375 -19.8125 30.984375 -18.59375 L 30.984375 -1.890625 C 30.984375 -1.347656 30.789062 -0.851562 30.40625 -0.40625 C 30.03125 0.0390625 29.539062 0.265625 28.9375 0.265625 C 28.351562 0.265625 27.828125 0.0390625 27.359375 -0.40625 C 26.898438 -0.851562 26.671875 -1.347656 26.671875 -1.890625 L 26.671875 -18.59375 C 26.671875 -20.09375 26.3125 -21.226562 25.59375 -22 C 24.875 -22.78125 23.972656 -23.171875 22.890625 -23.171875 C 21.816406 -23.171875 20.921875 -22.78125 20.203125 -22 C 19.484375 -21.226562 19.125 -20.09375 19.125 -18.59375 L 19.125 -1.890625 C 19.125 -1.347656 18.9375 -0.851562 18.5625 -0.40625 C 18.1875 0.0390625 17.691406 0.265625 17.078125 0.265625 C 16.503906 0.265625 15.984375 0.0390625 15.515625 -0.40625 C 15.046875 -0.851562 14.8125 -1.347656 14.8125 -1.890625 L 14.8125 -18.59375 C 14.8125 -20.09375 14.453125 -21.226562 13.734375 -22 C 13.015625 -22.78125 12.117188 -23.171875 11.046875 -23.171875 C 9.960938 -23.171875 9.0625 -22.78125 8.34375 -22 C 7.625 -21.226562 7.265625 -20.09375 7.265625 -18.59375 L 7.265625 -1.890625 C 7.265625 -1.347656 7.078125 -0.851562 6.703125 -0.40625 C 6.328125 0.0390625 5.800781 0.265625 5.125 0.265625 Z M 5.125 0.265625 "/></g></g></g></g></g></svg>