<svg xmlns="http://www.w3.org/2000/svg" xmlns:xlink="http://www.w3.org/1999/xlink" width="1920" zoomAndPan="magnify" viewBox="0 0 1440 809.999993" height="1080" preserveAspectRatio="xMidYMid meet" version="1.0"><path fill="#0473ba" d="M 298.246094 355.480469 C 326.261719 352.777344 351.15625 373.308594 353.839844 401.324219 C 356.519531 429.339844 335.96875 454.21875 307.945312 456.875 C 279.960938 459.527344 255.121094 439.007812 252.441406 411.023438 C 249.765625 383.042969 270.265625 358.183594 298.246094 355.480469 Z M 305.035156 431.984375 C 319.246094 430.9375 329.9375 418.605469 328.957031 404.394531 C 327.980469 390.179688 315.699219 379.429688 301.480469 380.339844 C 287.167969 381.257812 276.328125 393.640625 277.3125 407.949219 C 278.296875 422.257812 290.730469 433.039062 305.035156 431.984375 Z M 305.035156 431.984375 " fill-opacity="1" fill-rule="nonzero"/><path fill="#0473ba" d="M 568.667969 340.019531 C 572.285156 339.691406 575.953125 339.835938 579.476562 340.738281 C 586.304688 342.480469 590.265625 346.632812 593.746094 352.527344 L 593.746094 341.148438 L 610.230469 341.148438 L 610.226562 385.847656 C 610.230469 394.640625 610.976562 404.121094 609.453125 412.785156 C 608.613281 417.582031 606.898438 422.230469 603.941406 426.132812 C 599.027344 432.609375 591.496094 435.6875 583.628906 436.769531 C 573.933594 438.105469 561.785156 437.226562 553.746094 431.023438 C 548.105469 426.671875 546.160156 421 545.320312 414.15625 C 545.332031 413.570312 545.371094 413.222656 545.628906 412.695312 C 550.703125 412.023438 556.371094 412.539062 561.511719 412.570312 C 562.050781 416.007812 562.984375 419.070312 565.464844 421.628906 C 568.503906 424.773438 572.8125 425.917969 577.078125 425.921875 C 581.308594 425.925781 585.589844 424.855469 588.640625 421.773438 C 594.585938 415.765625 592.933594 403.683594 592.882812 395.84375 C 592.269531 396.910156 591.578125 397.972656 590.835938 398.957031 C 587.214844 403.761719 581.792969 406.21875 575.925781 406.9375 C 567.917969 407.917969 559.574219 406.242188 553.171875 401.15625 C 546.417969 395.792969 542.914062 387.523438 541.949219 379.105469 C 540.808594 369.179688 542.515625 358.199219 548.882812 350.214844 C 553.910156 343.90625 560.792969 340.886719 568.667969 340.019531 Z M 576.789062 394.910156 C 581.488281 394.414062 585.308594 393.015625 588.378906 389.253906 C 592.78125 383.863281 593.472656 375.871094 592.726562 369.207031 C 592.148438 364.054688 590.183594 358.730469 585.988281 355.441406 C 582.992188 353.089844 578.78125 351.875 574.984375 352.167969 C 570.285156 352.683594 566.484375 354.054688 563.417969 357.828125 C 559.074219 363.160156 558.308594 371.105469 559.054688 377.703125 C 559.652344 382.96875 561.558594 388.320312 565.867188 391.675781 C 569.148438 394.230469 572.730469 394.867188 576.789062 394.910156 Z M 576.789062 394.910156 " fill-opacity="1" fill-rule="nonzero"/><path fill="#061b39" d="M 792.800781 314.074219 C 793.390625 314.007812 793.964844 313.964844 794.554688 313.945312 C 808.085938 313.480469 821.789062 315.992188 831.957031 325.632812 C 838.859375 332.175781 842.082031 340.410156 842.367188 349.820312 L 825.105469 349.820312 C 824.480469 344.929688 822.632812 340.191406 819.265625 336.535156 C 814.132812 330.960938 807.058594 328.882812 799.667969 328.648438 C 792.242188 328.417969 784.335938 330.300781 778.835938 335.539062 C 771.949219 342.09375 769.925781 352.226562 769.773438 361.363281 C 769.609375 370.871094 771.292969 381.847656 778.265625 388.917969 C 783.53125 394.261719 791.136719 396.402344 798.492188 396.398438 C 806.410156 396.398438 813.523438 394.300781 819.183594 388.613281 C 822.785156 384.472656 824.308594 379.78125 825.101562 374.433594 L 842.371094 374.433594 C 842.253906 381.933594 840.132812 389.105469 835.613281 395.144531 C 828.761719 404.289062 817.960938 409.167969 806.847656 410.65625 C 793.699219 412.414062 779.199219 410.246094 768.503906 401.964844 C 758.769531 394.421875 753.605469 382.945312 752.113281 370.921875 C 750.363281 356.808594 752.722656 341.15625 761.726562 329.78125 C 769.539062 319.902344 780.566406 315.445312 792.800781 314.074219 Z M 792.800781 314.074219 " fill-opacity="1" fill-rule="nonzero"/><path fill="#061b39" d="M 882.804688 339.996094 C 890.101562 339.46875 898.394531 340.003906 905.105469 343.070312 C 909.9375 345.277344 913.617188 348.851562 915.527344 353.859375 C 917.417969 358.824219 917.082031 364.160156 917.070312 369.375 C 917.046875 379.519531 915.746094 400.75 919.007812 409.472656 L 919.164062 409.878906 L 903.539062 409.878906 C 901.226562 406.589844 900.886719 403.582031 900.546875 399.707031 C 898.832031 402.757812 896.679688 405.367188 893.738281 407.308594 C 887.230469 411.597656 877.921875 412.027344 870.480469 410.496094 C 864.144531 409.1875 859.40625 406.210938 855.871094 400.785156 C 855.832031 400.699219 855.785156 400.613281 855.742188 400.527344 C 853.1875 395.089844 852.605469 388.621094 854.738281 382.9375 C 859.742188 369.621094 876.890625 370.253906 888.589844 369.1875 C 891.207031 368.945312 894.46875 368.878906 896.835938 367.707031 C 898.167969 367.046875 899.234375 366.023438 899.648438 364.566406 C 900.289062 362.3125 899.789062 359.414062 898.617188 357.410156 C 897.136719 354.886719 894.652344 353.371094 891.871094 352.667969 C 887.84375 351.648438 882.601562 351.886719 879.011719 354.160156 C 875.707031 356.253906 874.921875 359.332031 874.167969 362.914062 L 857.140625 362.914062 C 857.183594 357.789062 858.441406 352.628906 861.75 348.613281 C 866.914062 342.351562 875.128906 340.691406 882.804688 339.996094 Z M 873.972656 396.863281 C 878.035156 399.371094 882.730469 400.128906 887.390625 399 C 891.457031 398.023438 894.957031 395.453125 897.109375 391.867188 C 899.558594 387.847656 900.675781 381.625 899.734375 377.003906 C 899.628906 377.066406 899.523438 377.128906 899.421875 377.1875 C 892.160156 381.273438 873.722656 376.9375 871.03125 386.800781 C 870.375 389.203125 870.699219 392.191406 871.921875 394.34375 C 872.464844 395.296875 873.175781 396.117188 873.972656 396.863281 Z M 873.972656 396.863281 " fill-opacity="1" fill-rule="nonzero"/><path fill="#061b39" d="M 1118.726562 340 C 1120.867188 339.863281 1122.976562 339.8125 1125.121094 339.9375 C 1133.964844 340.460938 1142.410156 343.566406 1148.375 350.320312 C 1155.476562 358.363281 1157.019531 368.820312 1156.367188 379.175781 L 1105.597656 379.175781 C 1105.679688 382.714844 1106.230469 386.320312 1107.628906 389.59375 C 1109.339844 393.601562 1112.390625 396.785156 1116.492188 398.34375 C 1121.03125 400.070312 1126.796875 399.898438 1131.195312 397.824219 C 1135.464844 395.808594 1137.714844 392.429688 1139.28125 388.113281 L 1155.164062 388.113281 C 1154.132812 392.5 1152.582031 396.589844 1149.828125 400.203125 C 1144.902344 406.671875 1137.367188 409.78125 1129.492188 410.824219 C 1119.578125 412.136719 1108.519531 410.574219 1100.46875 404.28125 C 1093.304688 398.675781 1089.671875 390.234375 1088.632812 381.363281 C 1087.429688 371.074219 1089.183594 359.546875 1095.792969 351.265625 C 1101.609375 343.980469 1109.707031 340.976562 1118.726562 340 Z M 1105.519531 367.917969 L 1139.4375 367.917969 C 1138.289062 362.5 1136.679688 357.273438 1131.753906 354.113281 C 1128.070312 351.75 1123.671875 351.433594 1119.417969 351.820312 C 1115.003906 352.734375 1111.476562 354.398438 1108.914062 358.253906 C 1107 361.136719 1106.09375 364.542969 1105.519531 367.917969 Z M 1105.519531 367.917969 " fill-opacity="1" fill-rule="nonzero"/><path fill="#0473ba" d="M 626.601562 315.1875 L 643.84375 315.1875 L 643.84375 350.8125 C 644.925781 349.0625 646.09375 347.417969 647.558594 345.964844 C 652.085938 341.480469 657.960938 339.839844 664.214844 339.851562 C 670.394531 339.867188 676.972656 341.175781 681.464844 345.738281 C 684.296875 348.613281 685.941406 352.371094 686.761719 356.28125 C 688.1875 363.082031 687.535156 370.628906 687.53125 377.570312 L 687.523438 409.878906 L 670.339844 409.878906 L 670.339844 381.976562 C 670.382812 375.300781 671.894531 362.09375 667.203125 356.902344 C 665.003906 354.464844 661.71875 353.984375 658.59375 353.953125 C 654.886719 353.914062 651.28125 355.074219 648.636719 357.742188 C 646.363281 360.035156 645.035156 363.09375 644.394531 366.222656 C 643.292969 371.5625 643.832031 377.511719 643.832031 382.957031 L 643.84375 409.878906 L 626.601562 409.878906 Z M 626.601562 315.1875 " fill-opacity="1" fill-rule="nonzero"/><path fill="#061b39" d="M 957.78125 339.996094 L 958.300781 339.964844 C 967.261719 339.445312 978.292969 340.398438 985.246094 346.730469 C 989.730469 350.8125 991.171875 355.949219 991.421875 361.832031 L 974.714844 361.832031 C 974.25 358.886719 973.699219 356.296875 971.417969 354.148438 C 968.859375 351.738281 965.21875 351.140625 961.832031 351.179688 C 958.265625 351.21875 954.519531 351.9375 951.964844 354.648438 C 950.496094 356.214844 949.523438 358.457031 949.671875 360.625 C 949.847656 363.257812 951.695312 365.425781 954.050781 366.449219 C 956.472656 367.503906 959.238281 367.703125 961.835938 368.066406 C 970.433594 369.277344 981.523438 369.945312 988.160156 376.148438 C 991.6875 379.445312 993.132812 383.984375 993.253906 388.71875 C 993.398438 394.070312 991.878906 399.085938 988.121094 403 C 981.53125 409.867188 971.164062 411.015625 962.152344 411.214844 C 953.507812 411.125 943.5 409.988281 936.9375 403.714844 C 932.507812 399.476562 931.003906 394.085938 930.859375 388.113281 L 947.535156 388.113281 C 948.015625 391.410156 948.730469 394.335938 951.347656 396.65625 C 954.585938 399.53125 959.40625 400.054688 963.5625 399.859375 C 967.335938 399.683594 971.71875 398.792969 974.28125 395.757812 C 975.71875 394.058594 976.191406 391.757812 975.941406 389.585938 C 975.617188 386.742188 973.621094 384.875 971.0625 383.796875 C 968.691406 382.796875 965.808594 382.511719 963.277344 382.144531 C 955.269531 380.972656 945.019531 380.527344 938.441406 375.367188 C 935.09375 372.746094 933.347656 368.929688 932.859375 364.761719 C 932.191406 359.050781 933.367188 353.128906 937.039062 348.597656 C 942.082031 342.375 950.226562 340.734375 957.78125 339.996094 Z M 957.78125 339.996094 " fill-opacity="1" fill-rule="nonzero"/><path fill="#0473ba" d="M 434.953125 315.1875 L 453.164062 315.1875 L 453.164062 395.066406 L 498.460938 395.066406 L 498.460938 409.878906 L 434.953125 409.878906 Z M 434.953125 315.1875 " fill-opacity="1" fill-rule="nonzero"/><path fill="#061b39" d="M 1011.625 320.464844 L 1028.808594 320.464844 L 1028.808594 341.148438 L 1043.675781 341.148438 L 1043.675781 353.539062 L 1028.808594 353.539062 L 1028.78125 378.972656 C 1028.777344 383.261719 1028.433594 387.898438 1028.945312 392.15625 C 1029.117188 393.578125 1029.53125 395.851562 1030.609375 396.835938 C 1033.289062 399.28125 1040.3125 398.316406 1043.675781 398.21875 L 1043.675781 406.539062 L 1043.652344 409.835938 C 1040.804688 410.109375 1037.953125 410.320312 1035.097656 410.464844 C 1029.046875 410.714844 1020.886719 410.789062 1016.203125 406.269531 C 1013.984375 404.128906 1012.808594 401.234375 1012.210938 398.257812 C 1011.074219 392.59375 1011.609375 386.296875 1011.613281 380.527344 L 1011.625 353.539062 L 1000.742188 353.539062 L 1000.742188 341.148438 L 1011.625 341.148438 Z M 1011.625 320.464844 " fill-opacity="1" fill-rule="nonzero"/><path fill="#0473ba" d="M 708.53125 320.464844 L 725.714844 320.464844 L 725.714844 341.148438 L 740.582031 341.148438 L 740.582031 353.539062 L 725.714844 353.539062 L 725.683594 378.828125 C 725.679688 383.171875 725.335938 387.832031 725.871094 392.132812 C 726.046875 393.527344 726.457031 395.871094 727.527344 396.816406 C 730.316406 399.28125 737.117188 398.320312 740.582031 398.214844 L 740.582031 406.214844 L 740.566406 409.832031 C 736.734375 410.253906 732.816406 410.523438 728.957031 410.535156 C 723.546875 410.546875 716.804688 410.121094 712.816406 405.9375 C 710.757812 403.777344 709.6875 400.972656 709.125 398.085938 C 708.03125 392.511719 708.515625 386.414062 708.519531 380.75 L 708.53125 353.539062 L 697.8125 353.539062 L 697.8125 341.148438 L 708.53125 341.148438 Z M 708.53125 320.464844 " fill-opacity="1" fill-rule="nonzero"/><path fill="#061b39" d="M 1057.300781 315.1875 L 1074.542969 315.1875 L 1074.542969 409.859375 C 1068.808594 410.003906 1063.039062 409.875 1057.300781 409.878906 Z M 1057.300781 315.1875 " fill-opacity="1" fill-rule="nonzero"/><path fill="#061b39" d="M 297.519531 316.082031 C 312.46875 314.921875 327.882812 317.414062 341.164062 324.484375 C 340.445312 324.382812 339.726562 324.292969 339.003906 324.210938 C 309.003906 320.828125 280.140625 326.648438 256.226562 345.695312 C 248.429688 351.945312 241.78125 359.5 236.578125 368.03125 C 235.539062 361.289062 234.347656 354.785156 233.867188 347.964844 C 234.613281 346.992188 235.378906 346.035156 236.160156 345.09375 C 251.527344 326.777344 274.179688 318.0625 297.519531 316.082031 Z M 297.519531 316.082031 " fill-opacity="1" fill-rule="nonzero"/><path fill="#061b39" d="M 361.1875 337.09375 C 361.316406 337.113281 361.445312 337.113281 361.566406 337.152344 C 363.109375 337.609375 365.640625 340.359375 366.898438 341.5625 C 377.636719 351.820312 385.089844 364.445312 389.320312 378.667969 C 395.566406 399.648438 395.445312 424.675781 384.820312 444.226562 C 385.238281 440.421875 385.597656 436.609375 385.902344 432.789062 C 386.328125 421.640625 385.691406 410.585938 383.195312 399.6875 C 377.546875 375.0625 362.964844 353.136719 341.4375 339.671875 C 348.019531 338.578125 354.503906 337.367188 361.1875 337.09375 Z M 361.1875 337.09375 " fill-opacity="1" fill-rule="nonzero"/><path fill="#061b39" d="M 369.433594 444.78125 C 371.203125 449.574219 372.023438 459.570312 372.125 464.785156 C 364.257812 474.378906 355.226562 481.839844 343.996094 487.222656 C 322.136719 497.699219 295.699219 499.546875 272.800781 491.503906 C 269.996094 490.398438 267.359375 489.09375 264.707031 487.671875 C 279.769531 490.027344 295.867188 489.519531 310.703125 485.964844 C 334.492188 480.257812 356.527344 465.804688 369.433594 444.78125 Z M 369.433594 444.78125 " fill-opacity="1" fill-rule="nonzero"/><path fill="#061b39" d="M 221.398438 368.167969 C 221.746094 372.152344 220.675781 376.78125 220.480469 380.851562 C 219.875 391.757812 220.8125 402.695312 223.273438 413.335938 C 228.929688 437.332031 243.382812 459.394531 264.511719 472.464844 C 261.9375 473.03125 259.316406 473.40625 256.71875 473.832031 C 252.710938 474.582031 248.59375 474.871094 244.53125 475.097656 C 231.195312 465.074219 221.957031 450.085938 217.132812 434.265625 C 210.664062 413.058594 210.835938 388.03125 221.398438 368.167969 Z M 221.398438 368.167969 " fill-opacity="1" fill-rule="nonzero"/><path fill="#0473ba" d="M 510.6875 341.148438 L 527.871094 341.148438 L 527.871094 409.878906 L 510.6875 409.878906 Z M 510.6875 341.148438 " fill-opacity="1" fill-rule="nonzero"/><path fill="#737373" d="M 828.164062 457.382812 C 833.460938 457.34375 843.03125 456.445312 847.773438 458.273438 C 849.914062 459.097656 851.808594 460.558594 852.722656 462.707031 C 853.875 465.410156 853.480469 469.070312 852.347656 471.753906 C 851.378906 474.058594 849.671875 475.1875 847.457031 476.117188 C 847.703125 476.226562 847.949219 476.339844 848.195312 476.457031 C 854.539062 479.546875 851.917969 487.875 853.890625 493.488281 L 854.042969 493.910156 L 850.351562 493.90625 C 849.988281 491.742188 849.785156 489.652344 849.726562 487.457031 C 849.59375 484.671875 849.609375 481.523438 847.445312 479.449219 C 844.285156 476.414062 835.582031 477.605469 831.398438 477.640625 L 831.398438 493.90625 C 830.339844 493.933594 829.300781 494.035156 828.289062 493.671875 C 827.949219 489.332031 828.152344 484.882812 828.152344 480.523438 Z M 848.34375 472.746094 C 849.960938 470.460938 850.496094 468.085938 849.953125 465.296875 C 849.660156 463.769531 848.738281 462.527344 847.417969 461.722656 C 843.402344 459.273438 835.921875 460.40625 831.398438 460.402344 L 831.398438 474.726562 C 836.53125 474.777344 843.964844 475.808594 848.34375 472.746094 Z M 848.34375 472.746094 " fill-opacity="1" fill-rule="nonzero"/><path fill="#737373" d="M 568.269531 457.382812 C 574.027344 457.398438 580.796875 456.574219 586.417969 457.75 C 588.734375 458.230469 590.667969 459.398438 591.941406 461.429688 C 593.523438 463.960938 593.734375 467.238281 593.054688 470.09375 C 592.554688 472.210938 591.378906 474.078125 589.484375 475.210938 C 588.945312 475.53125 588.421875 475.867188 587.898438 476.199219 C 589.007812 477.203125 590.441406 477.773438 591.414062 478.960938 C 593.539062 481.5625 592.664062 489.695312 593.964844 493.488281 L 594.113281 493.90625 L 590.429688 493.898438 C 590.042969 492.09375 589.941406 490.226562 589.777344 488.386719 C 589.710938 485.382812 589.878906 481.773438 587.550781 479.492188 C 584.394531 476.398438 575.703125 477.605469 571.5 477.640625 C 571.488281 481.308594 572.058594 488.742188 571.539062 491.992188 C 571.371094 493.027344 570.996094 493.519531 570.148438 494.089844 C 569.316406 494.113281 569.320312 494.136719 568.679688 493.613281 C 567.617188 491.261719 568.265625 462.285156 568.269531 457.382812 Z M 571.5 474.726562 C 576.769531 474.78125 584.003906 475.78125 588.515625 472.671875 C 589.714844 470.832031 590.886719 467.890625 590.371094 465.648438 C 589.976562 463.929688 588.84375 462.667969 587.34375 461.796875 C 583.191406 459.398438 576.128906 460.347656 571.5 460.402344 Z M 571.5 474.726562 " fill-opacity="1" fill-rule="nonzero"/><path fill="#737373" d="M 438.402344 457.382812 C 444.027344 457.398438 455.597656 455.976562 459.828125 459.75 C 461.9375 461.632812 462.847656 464.492188 462.921875 467.253906 C 463 470.304688 462.179688 473.5 459.949219 475.695312 C 456.691406 478.90625 451.75 478.324219 447.558594 478.289062 L 441.636719 478.289062 L 441.636719 493.90625 C 440.578125 493.933594 439.539062 494.035156 438.527344 493.671875 C 438.1875 489.332031 438.390625 484.882812 438.390625 480.523438 Z M 441.636719 475.265625 C 446.773438 475.320312 453.511719 476.410156 457.835938 473.183594 C 459.371094 471.117188 459.976562 469.003906 459.605469 466.425781 C 459.347656 464.648438 458.585938 463.03125 457.105469 461.949219 C 453.378906 459.210938 445.984375 460.421875 441.636719 460.402344 Z M 441.636719 475.265625 " fill-opacity="1" fill-rule="nonzero"/><path fill="#737373" d="M 512.8125 457.273438 L 516.34375 457.273438 L 529.441406 493.90625 L 525.90625 493.90625 L 521.898438 482.378906 L 507.03125 482.378906 L 502.914062 493.90625 L 499.535156 493.90625 C 503.785156 481.640625 508.378906 469.472656 512.8125 457.273438 Z M 507.976562 479.464844 L 520.925781 479.464844 C 519.390625 474.957031 516.394531 464.359375 514.519531 460.941406 C 512.304688 467.097656 510.269531 473.34375 507.976562 479.464844 Z M 507.976562 479.464844 " fill-opacity="1" fill-rule="nonzero"/><path fill="#737373" d="M 696.519531 457.382812 L 700.015625 457.390625 C 706.605469 467.984375 713.742188 478.519531 719.578125 489.539062 C 719.367188 485.214844 718.574219 459.207031 719.703125 457.472656 C 720.609375 457.398438 721.300781 457.367188 722.179688 457.625 C 722.828125 461.554688 722.410156 466.117188 722.40625 470.117188 L 722.378906 493.53125 C 721.386719 494.140625 720.015625 493.898438 718.855469 493.90625 C 712.332031 483.449219 705.277344 473.050781 699.476562 462.179688 C 699.542969 469.125 699.550781 476.070312 699.511719 483.015625 C 699.511719 485.941406 699.839844 489.101562 699.605469 491.992188 C 699.542969 492.742188 699.484375 493.253906 698.980469 493.847656 C 698.054688 493.894531 697.503906 494.046875 696.679688 493.601562 C 696.261719 489.199219 696.492188 484.652344 696.496094 480.226562 Z M 696.519531 457.382812 " fill-opacity="1" fill-rule="nonzero"/><path fill="#737373" d="M 905.585938 456.632812 C 908.492188 456.601562 911.582031 457.175781 913.894531 459.039062 C 916.75 461.34375 917.480469 464.488281 917.894531 467.945312 C 917.050781 467.960938 916.210938 467.921875 915.367188 467.886719 C 913.984375 466.84375 913.617188 463.554688 912.292969 461.964844 C 910.941406 460.335938 909.140625 459.71875 907.085938 459.589844 C 904.503906 459.4375 901 460.039062 899.109375 461.871094 C 897.835938 463.09375 897.417969 465.125 897.5 466.835938 C 897.835938 474.09375 912.007812 473.097656 916.5625 477.625 C 918.179688 479.230469 918.871094 481.339844 918.90625 483.585938 C 918.953125 486.59375 917.996094 489.351562 915.824219 491.496094 C 912.675781 494.601562 908.589844 494.628906 904.457031 494.605469 C 900.964844 494.03125 897.769531 492.851562 895.5625 489.890625 C 893.914062 487.679688 893.136719 484.597656 893.535156 481.863281 L 894.414062 481.332031 C 896.671875 481.5625 896.824219 486.972656 899.308594 489.300781 C 901.574219 491.425781 904.746094 491.894531 907.734375 491.726562 C 910.359375 491.578125 912.671875 490.664062 914.40625 488.625 C 915.621094 487.203125 915.894531 485.082031 915.695312 483.28125 C 914.949219 476.449219 901.636719 476.835938 896.960938 473.007812 C 895.34375 471.679688 894.429688 469.992188 894.289062 467.898438 C 894.117188 465.335938 895.03125 461.890625 896.761719 459.976562 C 899.066406 457.417969 902.347656 456.863281 905.585938 456.632812 Z M 905.585938 456.632812 " fill-opacity="1" fill-rule="nonzero"/><path fill="#737373" d="M 764.925781 457.382812 C 768.035156 457.371094 786.296875 456.84375 787.707031 457.808594 C 787.957031 458.664062 787.9375 458.710938 787.628906 459.550781 C 787.023438 460.074219 786.535156 460.339844 785.730469 460.445312 C 784.058594 460.65625 782.210938 460.429688 780.511719 460.421875 L 768.054688 460.402344 L 768.054688 473.542969 C 771.328125 473.570312 784.171875 472.734375 786.234375 473.894531 C 786.300781 474.707031 786.242188 475.480469 786.183594 476.289062 C 784.027344 477.113281 771.519531 476.523438 768.394531 476.507812 C 767.625 477.332031 768.042969 488.816406 768.054688 490.777344 C 771.304688 490.785156 784.921875 490.257812 787.070312 490.789062 C 787.71875 490.949219 787.746094 491.238281 788.046875 491.789062 C 788.066406 492.640625 788.082031 492.980469 787.589844 493.714844 C 780.683594 494.582031 772.003906 493.921875 764.925781 493.90625 Z M 764.925781 457.382812 " fill-opacity="1" fill-rule="nonzero"/><path fill="#0473ba" d="M 519.304688 313.140625 C 521.632812 313.234375 523.90625 313.613281 525.824219 315.035156 C 527.691406 316.417969 528.804688 318.46875 529.136719 320.753906 C 529.476562 323.121094 528.890625 325.652344 527.421875 327.554688 C 525.375 330.203125 522.632812 330.808594 519.507812 331.136719 C 517.207031 330.980469 515.058594 330.675781 513.09375 329.347656 C 511.015625 327.9375 509.703125 325.835938 509.351562 323.347656 C 509.011719 320.941406 509.652344 318.394531 511.222656 316.519531 C 513.375 313.953125 516.15625 313.355469 519.304688 313.140625 Z M 519.304688 313.140625 " fill-opacity="1" fill-rule="nonzero"/><path fill="#737373" d="M 631.34375 457.382812 C 639.902344 457.363281 648.675781 456.949219 657.207031 457.53125 L 657.566406 458.164062 C 657.574219 459.109375 657.589844 459.253906 657.0625 460.09375 C 655.207031 461.070312 648.449219 460.414062 646.105469 460.402344 L 646.105469 482.484375 C 646.132812 486.125 646.394531 489.96875 645.984375 493.578125 C 645.195312 494.101562 643.796875 493.90625 642.871094 493.90625 L 642.871094 460.402344 C 639.144531 460.425781 635.335938 460.59375 631.628906 460.292969 C 631.179688 459.574219 631.363281 458.242188 631.34375 457.382812 Z M 631.34375 457.382812 " fill-opacity="1" fill-rule="nonzero"/></svg>