<svg xmlns="http://www.w3.org/2000/svg" xmlns:xlink="http://www.w3.org/1999/xlink" width="1920" zoomAndPan="magnify" viewBox="0 0 1440 809.999993" height="1080" preserveAspectRatio="xMidYMid meet" version="1.0"><defs><clipPath id="8d53d0f0c8"><path d="M 246 307 L 291.992188 307 L 291.992188 391.988281 L 246 391.988281 Z M 246 307 " clip-rule="nonzero"/></clipPath><clipPath id="7fc4e19eb7"><path d="M 203.960938 434 L 270.988281 434 L 270.988281 502.578125 L 203.960938 502.578125 Z M 203.960938 434 " clip-rule="nonzero"/></clipPath><clipPath id="5a5e504512"><path d="M 1072.332031 346 L 1199.945312 346 L 1199.945312 466 L 1072.332031 466 Z M 1072.332031 346 " clip-rule="nonzero"/></clipPath></defs><g clip-path="url(#8d53d0f0c8)"><path fill="#8049f3" d="M 287.34375 388.007812 L 280.246094 349.382812 C 282.988281 347.742188 285.40625 345.445312 287.261719 342.742188 C 290.648438 337.738281 291.9375 331.667969 290.808594 325.679688 C 289.683594 319.695312 286.375 314.527344 281.457031 311.085938 C 277.667969 308.460938 273.3125 307.066406 268.796875 307.066406 C 261.378906 307.066406 254.441406 310.757812 250.25 316.988281 C 246.863281 321.992188 245.570312 328.058594 246.703125 334.046875 C 247.828125 340.035156 251.136719 345.199219 256.054688 348.644531 C 258.714844 350.53125 261.777344 351.761719 264.925781 352.335938 L 272.101562 391.371094 C 276.214844 389.238281 280.890625 388.007812 285.8125 388.007812 C 286.292969 388.007812 286.859375 388.007812 287.34375 388.007812 Z M 287.34375 388.007812 " fill-opacity="1" fill-rule="nonzero"/></g><g clip-path="url(#7fc4e19eb7)"><path fill="#8049f3" d="M 259.605469 434.589844 L 235.652344 459.03125 C 232.828125 457.71875 229.683594 456.980469 226.296875 456.980469 C 220.332031 456.980469 214.6875 459.355469 210.414062 463.703125 C 206.296875 468.050781 203.960938 473.707031 203.960938 479.859375 C 203.960938 492.40625 214.042969 502.574219 226.378906 502.574219 C 238.71875 502.574219 248.796875 492.242188 248.71875 479.695312 C 248.71875 476.332031 247.910156 473.132812 246.621094 470.183594 L 270.570312 445.746094 C 265.972656 443.039062 262.183594 439.183594 259.523438 434.589844 Z M 259.605469 434.589844 " fill-opacity="1" fill-rule="nonzero"/></g><path fill="#8049f3" d="M 392.09375 422.863281 C 387.898438 416.714844 380.964844 413.023438 373.628906 413.023438 C 369.03125 413.023438 364.675781 414.417969 360.886719 417.125 C 358.144531 419.089844 355.964844 421.550781 354.355469 424.257812 L 316.210938 417.207031 C 316.210938 417.777344 316.292969 418.351562 316.292969 418.84375 C 316.292969 423.847656 315.082031 428.519531 313.066406 432.703125 L 351.613281 439.839844 C 352.175781 442.957031 353.304688 446.074219 355.242188 448.859375 C 359.433594 455.011719 366.371094 458.703125 373.707031 458.703125 C 378.304688 458.703125 382.742188 457.308594 386.449219 454.601562 C 396.609375 447.46875 399.109375 433.195312 392.09375 422.863281 Z M 392.09375 422.863281 " fill-opacity="1" fill-rule="nonzero"/><path fill="#0e209b" d="M 325 416.714844 C 323.953125 396.375 307.90625 380.054688 287.828125 379.070312 C 287.179688 379.070312 286.535156 378.988281 285.8125 378.988281 C 279.441406 378.988281 273.390625 380.546875 268.070312 383.335938 C 255.246094 389.894531 246.539062 403.347656 246.539062 418.925781 C 246.539062 426.308594 248.554688 433.199219 252.023438 439.183594 C 255.488281 445.171875 260.410156 450.089844 266.292969 453.535156 C 272.019531 456.898438 278.714844 458.867188 285.8125 458.867188 C 301.128906 458.867188 314.4375 449.84375 320.886719 436.808594 C 323.550781 431.394531 325.082031 425.324219 325.082031 418.925781 C 325.082031 418.1875 325.082031 417.449219 325 416.796875 Z M 325 416.714844 " fill-opacity="1" fill-rule="nonzero"/><g clip-path="url(#5a5e504512)"><path fill="#0e209b" d="M 1199.945312 346.59375 L 1199.945312 465.757812 L 1177.769531 465.757812 L 1177.769531 403.675781 L 1178.980469 368.820312 L 1178.652344 368.820312 L 1146.160156 465.757812 L 1126.078125 465.757812 L 1093.738281 368.820312 L 1093.421875 368.820312 L 1094.628906 403.675781 L 1094.628906 465.757812 L 1072.449219 465.757812 L 1072.449219 346.59375 L 1107.9375 346.59375 L 1129.054688 411.546875 L 1136.476562 438.445312 L 1136.804688 438.445312 L 1144.460938 411.710938 L 1165.425781 346.511719 L 1199.863281 346.511719 Z M 1199.945312 346.59375 " fill-opacity="1" fill-rule="nonzero"/></g><path fill="#0e209b" d="M 964.636719 465.753906 L 964.636719 346.59375 L 1052.457031 346.59375 L 1052.457031 366.601562 L 989.070312 366.601562 L 989.070312 396.210938 L 1038.902344 396.210938 L 1038.902344 415.320312 L 989.070312 415.320312 L 989.070312 445.664062 L 1054.953125 445.664062 L 1054.953125 465.675781 L 964.636719 465.675781 Z M 964.636719 465.753906 " fill-opacity="1" fill-rule="nonzero"/><path fill="#0e209b" d="M 949.074219 346.59375 L 949.074219 366.601562 L 909.882812 366.601562 L 909.882812 465.675781 L 885.367188 465.675781 L 885.367188 366.683594 L 845.933594 366.683594 L 845.933594 346.675781 L 949.074219 346.675781 Z M 949.074219 346.59375 " fill-opacity="1" fill-rule="nonzero"/><path fill="#0e209b" d="M 792.632812 343.234375 C 803.277344 343.234375 812.632812 345.117188 820.695312 348.808594 C 828.757812 352.5 835.617188 358.074219 841.257812 365.375 L 827.632812 381.449219 C 822.792969 375.214844 817.472656 370.625 811.664062 367.75 C 806.019531 364.71875 799.328125 363.242188 791.746094 363.242188 C 786.746094 363.242188 782.636719 363.898438 779.328125 365.210938 C 776.101562 366.519531 773.765625 368.242188 772.230469 370.460938 C 770.78125 372.59375 770.136719 375.054688 770.136719 377.675781 C 770.136719 380.957031 771.34375 383.664062 773.84375 385.960938 C 776.34375 388.089844 780.617188 389.894531 786.585938 391.371094 L 808.4375 396.457031 C 820.050781 399.078125 828.359375 403.101562 833.277344 408.347656 C 838.359375 413.515625 840.9375 420.238281 840.9375 428.601562 C 840.9375 436.398438 838.917969 443.203125 834.890625 448.859375 C 830.855469 454.355469 825.210938 458.703125 818.035156 461.652344 C 810.859375 464.523438 802.550781 466 793.195312 466 C 785.050781 466 777.554688 465.019531 770.617188 463.128906 C 763.84375 461.078125 757.878906 458.292969 752.554688 454.847656 C 747.234375 451.320312 742.796875 447.304688 739.25 442.792969 L 753.117188 425.980469 C 755.859375 429.832031 759.25 433.277344 763.199219 436.234375 C 767.234375 439.265625 771.75 441.644531 776.828125 443.449219 C 782.070312 445.171875 787.472656 445.992188 793.117188 445.992188 C 797.953125 445.992188 802.070312 445.417969 805.375 444.351562 C 808.839844 443.121094 811.339844 441.5625 813.035156 439.511719 C 814.808594 437.378906 815.695312 434.753906 815.695312 431.71875 C 815.695312 428.683594 814.648438 425.980469 812.46875 423.765625 C 810.453125 421.46875 806.664062 419.746094 801.101562 418.515625 L 777.3125 413.105469 C 770.457031 411.382812 764.570312 409.25 759.570312 406.625 C 754.730469 403.835938 751.023438 400.390625 748.363281 396.128906 C 745.859375 391.78125 744.652344 386.695312 744.652344 380.792969 C 744.652344 373.660156 746.507812 367.339844 750.296875 361.683594 C 754.085938 356.023438 759.488281 351.597656 766.585938 348.316406 C 773.765625 344.953125 782.472656 343.234375 792.46875 343.234375 Z M 792.632812 343.234375 " fill-opacity="1" fill-rule="nonzero"/><path fill="#8049f3" d="M 692.234375 466.085938 C 684.09375 466.085938 676.835938 464.195312 670.382812 460.503906 C 664.011719 456.816406 658.929688 451.402344 655.300781 444.433594 C 651.753906 437.296875 649.980469 428.929688 649.980469 419.171875 C 649.980469 409.414062 651.753906 401.046875 655.300781 394.078125 C 658.929688 386.941406 663.851562 381.53125 670.058594 377.839844 C 676.1875 374.152344 683.285156 372.265625 691.1875 372.265625 C 699.089844 372.265625 706.105469 374.070312 711.75 377.675781 C 717.394531 381.285156 721.832031 386.367188 724.894531 392.847656 C 727.960938 399.242188 729.492188 406.625 729.492188 415.074219 C 729.492188 416.140625 729.492188 417.207031 729.328125 418.351562 C 729.328125 419.335938 729.328125 420.238281 729.167969 421.058594 L 655.542969 421.058594 L 655.542969 412.941406 L 725.296875 412.941406 L 720.863281 414.171875 C 720.78125 403.835938 718.039062 395.554688 712.71875 389.402344 C 707.472656 383.253906 700.300781 380.21875 691.023438 380.21875 C 684.652344 380.21875 679.011719 381.777344 674.171875 384.894531 C 669.335938 387.925781 665.542969 392.355469 662.800781 398.257812 C 660.058594 404 658.691406 411.054688 658.691406 419.171875 C 658.691406 427.292969 660.058594 434.179688 662.800781 440.085938 C 665.625 445.992188 669.578125 450.5 674.492188 453.617188 C 679.574219 456.652344 685.460938 458.128906 692.074219 458.128906 C 698.6875 458.128906 704.8125 456.652344 709.652344 453.617188 C 714.652344 450.582031 718.441406 446.484375 721.183594 441.152344 L 728.28125 445.335938 C 726.1875 449.679688 723.285156 453.371094 719.734375 456.488281 C 716.183594 459.519531 712.070312 461.816406 707.472656 463.539062 C 702.878906 465.261719 697.800781 466.085938 692.234375 466.085938 Z M 692.234375 466.085938 " fill-opacity="1" fill-rule="nonzero"/><path fill="#8049f3" d="M 554.421875 466.410156 L 554.421875 346.59375 L 563.292969 346.59375 L 563.292969 394.570312 C 565.871094 388.171875 570.066406 383.253906 575.871094 379.808594 C 581.679688 376.199219 588.371094 374.398438 595.949219 374.398438 C 602.5625 374.398438 608.453125 375.625 613.53125 378.167969 C 618.613281 380.546875 622.5625 384.320312 625.382812 389.320312 C 628.371094 394.242188 629.820312 400.390625 629.820312 407.691406 L 629.820312 466.332031 L 620.953125 466.332031 L 620.953125 410.5625 C 620.953125 400.800781 618.53125 393.667969 613.695312 389.074219 C 608.933594 384.402344 602.726562 382.023438 595.0625 382.023438 C 589.5 382.023438 584.257812 383.335938 579.421875 385.960938 C 574.664062 388.582031 570.792969 392.4375 567.726562 397.355469 C 564.746094 402.28125 563.292969 408.347656 563.292969 415.402344 L 563.292969 466.332031 L 554.421875 466.332031 Z M 554.421875 466.410156 " fill-opacity="1" fill-rule="nonzero"/><path fill="#8049f3" d="M 487.816406 343.234375 C 498.621094 343.234375 507.652344 345.363281 514.988281 349.710938 C 522.410156 354.058594 528.132812 360.699219 532.003906 369.558594 L 524.585938 375.296875 C 521.117188 366.847656 516.28125 360.78125 510.070312 357.089844 C 503.941406 353.402344 496.28125 351.515625 487.167969 351.515625 C 480.152344 351.515625 474.265625 352.664062 469.429688 354.960938 C 464.589844 357.089844 460.878906 360.042969 458.21875 363.816406 C 455.71875 367.421875 454.507812 371.527344 454.507812 376.117188 C 454.507812 381.613281 456.28125 386.203125 459.832031 389.8125 C 463.378906 393.421875 469.910156 396.292969 479.347656 398.503906 L 502.410156 403.589844 C 513.859375 406.136719 521.925781 409.824219 526.519531 414.582031 C 531.277344 419.253906 533.617188 425.324219 533.617188 432.785156 C 533.617188 439.265625 531.761719 445.089844 527.972656 450.089844 C 524.34375 455.175781 519.183594 459.03125 512.730469 461.816406 C 506.199219 464.605469 498.621094 466 489.832031 466 C 481.039062 466 473.945312 464.851562 467.25 462.554688 C 460.71875 460.175781 455.234375 456.816406 450.71875 452.632812 C 446.203125 448.285156 442.898438 443.121094 440.800781 437.136719 L 448.625 430.980469 C 450.316406 436.644531 452.980469 441.480469 456.769531 445.582031 C 460.636719 449.515625 465.476562 452.550781 471.121094 454.601562 C 476.769531 456.652344 483.136719 457.636719 490.070312 457.636719 C 497.007812 457.636719 502.652344 456.734375 507.8125 454.929688 C 513.050781 453.042969 517.007812 450.253906 519.910156 446.648438 C 522.890625 443.039062 524.34375 438.609375 524.34375 433.277344 C 524.34375 427.949219 522.570312 423.929688 519.023438 420.484375 C 515.554688 416.960938 509.425781 414.335938 500.554688 412.53125 L 476.441406 407.117188 C 469.023438 405.398438 462.976562 403.179688 458.378906 400.476562 C 453.785156 397.683594 450.398438 394.40625 448.300781 390.550781 C 446.285156 386.613281 445.316406 382.105469 445.316406 377.183594 C 445.316406 371.035156 447.011719 365.457031 450.476562 360.371094 C 453.945312 355.203125 458.785156 351.023438 465.234375 347.90625 C 471.605469 344.789062 479.183594 343.234375 487.976562 343.234375 Z M 487.816406 343.234375 " fill-opacity="1" fill-rule="nonzero"/></svg>