<?xml version="1.0" encoding="utf-8" ?><svg xmlns="http://www.w3.org/2000/svg" xmlns:xlink="http://www.w3.org/1999/xlink" width="600" height="600" viewBox="0 0 600 600"><path transform="scale(0.555556 0.555556)" d="M389.556 470.501C389.992 470.469 390.428 470.436 390.865 470.427C404.562 470.136 425.874 480 435.493 489.557C437.271 491.324 439.453 493.745 439.978 496.283C441.697 504.591 440.753 523.432 440.785 532.725L440.653 618.869C421.741 606.589 403.114 593.553 382.457 584.304C373.624 580.35 361.947 574.831 352.214 574.945C340.87 575.079 334.502 590.781 327.842 598.14C321.713 604.913 314.142 610.476 305.547 613.677C292.249 618.63 279.656 616.277 267.134 610.497C266.988 610.413 266.84 610.334 266.696 610.246C259.055 605.606 253.485 598.758 251.35 589.998C249.087 580.714 249.955 569.858 255.095 561.669C265.909 544.437 296.226 541.777 314.559 537.667C294.704 506.592 263.184 495.441 230.472 482.84C241.987 483.359 253.696 482.926 265.233 482.936C290.687 483.067 316.142 482.962 341.595 482.623C350.507 482.561 365.621 484.389 373.474 482.597C381.123 480.85 383.086 473.313 388.649 470.864C388.947 470.733 389.253 470.622 389.556 470.501ZM376.656 558.609C379.29 558.255 381.121 557.717 382.75 555.492C384.525 553.068 385.043 550.013 385.211 547.082C385.621 539.923 383.876 533.1 383.422 526.022C382.862 517.304 383.923 508.433 382.29 499.778C381.614 496.196 380.244 492.483 377.117 490.34C370.863 486.052 353.541 487.753 345.829 487.965C342.833 488.387 338.584 488.464 336.74 491.269C335.637 492.946 335.962 495.173 336.554 496.969C337.914 501.091 340.721 504.84 342.9 508.554C348.272 517.709 349.022 526.515 349.172 536.846C349.222 540.284 349.495 543.536 350.814 546.764C352.293 550.382 355.821 553.195 359.251 554.875C364.598 557.494 370.822 557.993 376.656 558.609ZM298.309 585.904C305.329 584.546 311.568 582.349 315.886 576.209C317.06 574.541 318.507 572.07 318.331 569.935C318.221 568.589 317.516 567.837 316.428 567.14C314.454 565.877 312.344 565.833 310.089 565.975C304.085 567.302 294.485 568.249 291.007 573.952C289.68 576.128 289.399 579.29 290.119 581.715C290.539 583.131 291.56 584.156 292.864 584.779C294.552 585.583 296.476 585.713 298.309 585.904Z"/><path transform="scale(0.555556 0.555556)" d="M554.54 483.675C561.074 483.639 583.499 484.725 588.115 479.992C590.619 477.424 592.492 470.665 596.388 470.5C601.848 470.267 608.861 473.107 614.089 474.679C643.61 483.553 669.722 497.488 691.544 519.647C699.31 527.534 712.012 541.544 715.846 551.803C717.118 555.205 717.456 558.972 717.404 562.584C717.252 573.135 714.74 585.039 706.968 592.706C703.286 596.337 698.563 598.753 693.307 598.656C682.497 598.457 672.772 587.258 665.497 580.425C668.064 578.932 670.595 577.472 673.401 576.469C681.183 573.685 692.879 572.69 695.377 563.186C696.51 558.878 695.637 554.031 693.209 550.324C688.723 543.474 669.353 531.48 661.192 530.013C657.909 529.423 654.573 529.69 651.8 531.676C649.544 533.29 649.183 535.036 648.836 537.694C647.969 544.32 649.143 551.637 649.148 558.36C649.166 579.15 649.503 600.044 649.04 620.821C589.102 583.398 527.271 561.094 456.529 556.457C477.23 537.738 503.515 524.524 527.926 511.345C535.471 507.271 544.154 503.783 551.13 498.884C553.244 497.399 554.305 496.07 554.426 493.385C554.498 491.783 554.114 490.661 553.067 489.426C548.745 487.343 533.116 488.748 527.384 488.786C506.478 488.923 484.831 488.26 464.169 484.922C467.289 483.279 525.474 484.214 534.507 484.221C540.777 484.226 548.458 485.066 554.54 483.675ZM547.538 548.045C553.402 553.044 560.385 556.724 567.052 560.537C571.702 563.007 581.813 569.818 587.113 568.102C589.697 567.265 591.371 564.579 592.352 562.206C595.224 555.252 595.432 545.122 592.22 538.28C591.126 535.951 589.305 533.423 586.715 532.653C585.72 532.357 584.613 532.352 583.582 532.321C570.347 533.434 557.203 536.502 548.306 547.101C548.046 547.412 547.79 547.727 547.538 548.045Z"/><path transform="scale(0.555556 0.555556)" d="M164.281 470.513C165.357 470.38 166.416 470.28 167.502 470.259C181.75 469.98 200.276 479.966 210.32 489.573C212.995 492.131 215.617 495.285 216.383 498.997C218.101 507.32 216.958 517.638 216.885 526.191L215.966 588.553C215.908 593.092 215.791 597.65 215.954 602.187C216.042 604.633 216.591 607.597 216.364 609.993C216.226 611.448 215.878 611.725 214.9 612.679C212.814 612.954 211.075 611.907 209.299 610.845C205.055 608.306 201.187 604.772 197.328 601.685C187.711 593.988 177.365 585.591 166.056 580.59C157.142 576.649 147.655 573.716 137.962 572.57C119.545 570.393 111.522 574.867 96.839 584.893C89.5817 589.86 82.3871 594.919 75.2568 600.067C68.2546 605.05 61.1367 610.45 53.0134 613.464C43.3041 617.067 35.2723 614.91 26.3048 610.718C17.703 606.264 10.2112 599.567 2.82355 593.383C9.8052 590.274 16.9453 592.809 24.2642 593.166C32.7911 593.582 41.7385 592.806 49.7623 589.748C59.7364 585.865 67.7625 578.184 72.0788 568.39C76.0085 559.518 76.0698 550.044 72.4789 541.058C61.8677 514.502 25.6185 493.744 0.0754819 482.879C37.1936 483.475 74.4492 482.875 111.576 482.634C120.534 482.575 142.962 483.847 149.924 482.016C156.295 480.34 158.116 473.589 163.347 470.946C163.654 470.792 163.97 470.658 164.281 470.513ZM148.579 548.949C151.137 549.027 154.693 549.598 156.77 547.828C159.543 545.465 158.392 511.953 158.36 506.843C158.335 502.77 158.76 493.1 155.229 490.367C151.845 487.748 122.828 488.171 116.93 488.538C114.06 488.684 110.318 488.492 108.359 491.006C107.169 492.533 107.08 494.419 107.541 496.218C109.319 503.155 116.031 509.332 119.144 516.008C123.323 524.97 119.25 542.513 128.832 547.527C134.83 550.665 142.132 548.758 148.579 548.949Z"/><path transform="scale(0.555556 0.555556)" d="M1014.4 471.639C1015 471.579 1015.57 471.527 1016.17 471.544C1025.96 471.81 1053.37 481.384 1060.08 488.399C1062.92 491.363 1063.55 495.175 1063.96 499.113C1065.16 510.685 1064.02 528.956 1063.96 541.095L1064 619.051C1046.08 604.088 1029.41 587.743 1011.1 573.215C1004.92 568.312 998.497 562.974 991.494 559.31C987.677 557.312 982.305 555.351 978.012 556.884C968.945 560.121 961.392 576.558 957.117 584.809C948.091 574.445 933.198 551.839 922.349 545.846C917.756 543.309 912.782 543.413 907.871 544.911C897.627 548.036 885.737 556.909 881 566.677C879.838 569.072 878.972 572.011 879.999 574.61C880.676 576.322 882.034 577.534 883.711 578.241C892.527 581.954 908.176 577.138 916.495 573.571C915.926 579.72 915.727 586.233 913.797 592.139C912.586 595.844 910.33 599.842 906.673 601.58C897.463 605.957 876.59 600.024 867.343 596.903C853.915 592.371 837.16 585.126 830.698 571.475C827.358 564.417 828.156 557.506 830.76 550.435C833.761 544.496 837.127 539.009 841.305 533.817C852.369 520.065 871.663 502.4 890.169 500.678C910.883 498.75 918.066 518.268 930.759 528.19C933.209 530.105 936.46 531.936 939.692 531.391C945.55 530.402 949.083 521.368 952.223 516.95C954.388 513.904 957.428 511.07 961.266 510.524C964.437 510.072 967.605 511.194 970.332 512.733C979.525 517.923 992.527 531.863 1001.89 539.095C1005.41 522.168 1004.61 506.449 1003.84 489.373C958.894 488.852 913.893 489.32 868.944 489.318C849.935 489.317 830.795 489.767 811.801 489.139L811.831 481.98C837.391 481.477 863.044 481.905 888.613 481.902L1003.74 481.983C1003.96 479.164 1004.48 476.429 1005 473.655C1008.14 472.614 1011.11 472.007 1014.4 471.639ZM1003.79 488.172C1003.95 486.594 1004.46 484.64 1003.62 483.221L1002.97 482.751C1002.94 484.406 1002.66 486.467 1003.42 487.956L1003.79 488.172Z"/><path transform="scale(0.555556 0.555556)" d="M1002.97 482.751L1003.62 483.221C1004.46 484.64 1003.95 486.594 1003.79 488.172L1003.42 487.956C1002.66 486.467 1002.94 484.406 1002.97 482.751Z"/><path transform="scale(0.555556 0.555556)" d="M739.968 527.833C740.139 517.99 740.466 508.106 740.288 498.265C740.184 492.537 739.337 486.587 739.786 480.887C739.986 478.344 740.537 475.283 741.991 473.126C742.996 471.634 744.577 471.216 746.274 470.999C751.413 470.341 775.741 477.4 781.316 479.614C784.532 480.892 787.716 482.557 790.436 484.714C795.817 488.981 799.264 495.036 800.024 501.88C798.001 506.452 799.22 518.245 800.103 523.298C800.289 533.307 799.57 543.426 799.546 553.455C799.499 573.452 800.004 593.461 800.021 613.466C768.566 572.605 732.558 535.461 692.695 502.752C685.944 497.262 678.779 490.551 671.206 486.311C674.06 485.537 677.057 484.866 680.009 484.61C683.181 484.336 686.348 484.72 689.255 486.066C698.519 490.354 707.084 499.245 714.758 505.924L739.968 527.833Z"/><path transform="scale(0.555556 0.555556)" d="M456.185 483.45C488.943 484.287 521.771 483.18 554.54 483.675C548.458 485.066 540.777 484.226 534.507 484.221C525.474 484.214 467.289 483.279 464.169 484.922C461.492 484.651 458.821 483.987 456.185 483.45Z"/><path transform="scale(0.555556 0.555556)" d="M800.024 501.88C801.437 508.426 800.95 516.653 800.103 523.298C799.22 518.245 798.001 506.452 800.024 501.88Z"/></svg>