<svg xmlns="http://www.w3.org/2000/svg" xmlns:xlink="http://www.w3.org/1999/xlink" width="1920" zoomAndPan="magnify" viewBox="0 0 1440 809.999993" height="1080" preserveAspectRatio="xMidYMid meet" version="1.0"><defs><clipPath id="16dff7e9d9"><path d="M 1205 321 L 1245.570312 321 L 1245.570312 391 L 1205 391 Z M 1205 321 " clip-rule="nonzero"/></clipPath></defs><path fill="#00a796" d="M 549.054688 369.125 C 549.140625 369.15625 549.25 369.183594 549.3125 369.21875 C 550.960938 370.222656 551.777344 380.59375 552.03125 382.375 C 556.183594 411.488281 557.425781 455.445312 532.421875 482.617188 C 525.542969 490.09375 514.738281 499.066406 494.011719 502.738281 C 480.632812 505.109375 468.039062 504.308594 454.472656 502.625 C 441.078125 520.660156 409.988281 547.390625 365.6875 558.394531 C 347.574219 562.890625 328.558594 564.457031 306.941406 563.011719 C 302.445312 562.644531 298.039062 562.082031 293.644531 561.582031 C 295.078125 561.324219 296.480469 561.046875 297.851562 560.75 C 314.636719 557.128906 327.671875 550.835938 338.449219 545.042969 C 381.226562 522.0625 409.550781 488.785156 428.746094 461.773438 C 434.09375 454.25 438.582031 446.648438 443.898438 439.125 C 457.777344 419.484375 484.945312 390.816406 524.679688 375.984375 C 532.019531 373.246094 539.980469 371.0625 549.054688 369.125 Z M 470.171875 472.515625 C 472.351562 472.941406 474.515625 473.371094 476.765625 473.75 C 483.976562 474.605469 490.988281 475.121094 498.171875 473.859375 C 510.007812 471.785156 516.300781 466.554688 520.132812 462.304688 C 533.816406 447.121094 533.566406 425.378906 532.03125 409.316406 C 531.671875 405.574219 531.9375 401.503906 530.296875 397.835938 C 525.679688 400.6875 521.917969 403.792969 518.191406 406.804688 C 498.5 423.105469 484.285156 440.191406 475.859375 457.707031 C 473.457031 462.574219 471.027344 467.578125 470.171875 472.515625 Z M 470.171875 472.515625 " fill-opacity="1" fill-rule="nonzero"/><path fill="#00a796" d="M 442.929688 252.886719 L 443.367188 253.1875 C 441.679688 255.136719 439.535156 257.011719 437.777344 258.949219 C 433.183594 264.019531 428.867188 269.125 424.835938 274.257812 C 408.042969 295.941406 394.808594 317.964844 385.207031 340.210938 C 379.796875 352.484375 375.3125 364.808594 371.75 377.171875 C 368.507812 388.351562 366.070312 399.542969 362.265625 410.703125 C 351.628906 441.875 334.253906 473.144531 305.480469 502.84375 C 294.992188 513.667969 281.523438 526.640625 263.265625 536.097656 C 279.484375 520.527344 291.054688 504.5 300.210938 488.222656 C 327.0625 438.558594 326.410156 386.976562 289.9375 337.945312 C 283.179688 328.9375 275.3125 320.042969 266.351562 311.289062 C 264.414062 309.414062 254.289062 301.25 254.433594 300.121094 L 255.210938 300 C 261.484375 300.171875 267.714844 300.921875 273.285156 301.960938 C 306.882812 308.226562 328.210938 325.574219 339.316406 338 C 341.992188 330.53125 346.53125 323.078125 351.613281 315.78125 C 366.886719 293.855469 392.609375 267.648438 442.929688 252.886719 Z M 442.929688 252.886719 " fill-opacity="1" fill-rule="nonzero"/><path fill="#088bcb" d="M 482.851562 293.660156 C 493.324219 293.589844 500.535156 294.300781 508.851562 296.589844 C 508.15625 296.816406 507.476562 297.046875 506.8125 297.28125 C 465.960938 311.726562 442.257812 342.3125 432.25 362.003906 C 430.359375 365.722656 426.839844 371.375 426.738281 374.953125 C 435.941406 371.144531 446.640625 368.125 460.457031 366.875 C 476.425781 365.425781 492.921875 366.8125 506.859375 369.804688 C 466.605469 376.253906 439.988281 408.71875 429.660156 422.757812 C 425.65625 428.195312 422.476562 433.71875 418.808594 439.191406 C 414.539062 445.601562 410.046875 451.992188 405.328125 458.359375 C 395.632812 471.804688 384.417969 485.101562 371.710938 498.214844 C 362.839844 507.121094 353.210938 516.253906 338.636719 524.1875 C 323.25 532.816406 299.03125 542.742188 275.210938 548.449219 C 328.429688 512.976562 362.589844 464.921875 376.832031 424.816406 C 381.109375 412.777344 383.320312 400.726562 386.578125 388.660156 C 391.289062 371.238281 397.867188 353.746094 409.855469 336.761719 C 416.597656 327.21875 425.027344 317.558594 438.058594 308.859375 C 445.5625 303.851562 456.207031 298.007812 470.621094 295.277344 C 474.582031 294.527344 478.589844 294.121094 482.851562 293.660156 Z M 482.851562 293.660156 " fill-opacity="1" fill-rule="nonzero"/><path fill="#088bcb" d="M 770.167969 456.386719 C 773.878906 456.34375 776.730469 456.46875 780.015625 457.160156 C 792.878906 459.875 799.128906 467.707031 802.460938 472.527344 C 812.015625 486.347656 811.019531 509.804688 789.9375 522.214844 C 786.214844 524.410156 781.855469 526.085938 774.683594 526.699219 C 771.859375 526.65625 769.429688 526.558594 766.871094 526.09375 C 755.054688 523.960938 749.050781 517.734375 745.398438 513.527344 C 732.488281 498.652344 733.03125 476.140625 753.410156 462.210938 C 757.242188 459.589844 761.996094 457.308594 770.167969 456.386719 Z M 773.878906 512.777344 C 780.710938 511.800781 783.972656 509.898438 786.742188 507.550781 C 797.628906 498.328125 797.863281 484.972656 787.335938 475.695312 C 785.148438 473.769531 781.828125 471.4375 776.28125 470.554688 C 774.765625 470.316406 773.21875 470.273438 771.589844 470.246094 C 764.71875 471.226562 761.308594 473.199219 758.523438 475.550781 C 747.847656 484.566406 747.808594 497.902344 757.953125 506.960938 C 760.222656 508.992188 763.867188 511.648438 769.886719 512.46875 C 771.148438 512.640625 772.550781 512.703125 773.878906 512.777344 Z M 773.878906 512.777344 " fill-opacity="1" fill-rule="nonzero"/><path fill="#088bcb" d="M 1148.898438 321.808594 C 1151.765625 321.644531 1154.464844 321.652344 1157.203125 322.027344 C 1166.183594 323.242188 1171.320312 326.699219 1174.949219 329.6875 C 1193.160156 344.699219 1192.753906 368.019531 1175.894531 383.191406 C 1171.972656 386.71875 1166.894531 390.359375 1156.703125 391.921875 C 1154.183594 392.011719 1151.59375 392.039062 1149.175781 391.738281 C 1140.246094 390.621094 1134.957031 387.347656 1131.238281 384.417969 C 1112.546875 369.707031 1112.601562 346.84375 1128.3125 331.757812 C 1132.402344 327.832031 1137.742188 323.628906 1148.898438 321.808594 Z M 1154.519531 378.035156 C 1160.484375 377.226562 1163.625 375.433594 1166.171875 373.425781 C 1177.496094 364.5 1177.660156 350.75 1168.050781 341.632812 C 1165.816406 339.511719 1162.378906 336.804688 1156.210938 335.882812 C 1154.070312 335.5625 1152.203125 335.59375 1149.992188 335.769531 C 1141.816406 337.347656 1138.152344 340.8125 1135.628906 343.851562 C 1128.289062 352.703125 1128.292969 366.292969 1140.882812 374.523438 C 1143.136719 375.996094 1146.320312 377.476562 1151.015625 377.949219 C 1152.125 378.0625 1153.378906 378.078125 1154.519531 378.035156 Z M 1154.519531 378.035156 " fill-opacity="1" fill-rule="nonzero"/><path fill="#088bcb" d="M 780.132812 321.804688 C 783.148438 321.671875 785.601562 321.648438 788.484375 322.046875 C 797.035156 323.230469 802.085938 326.519531 805.644531 329.375 C 824.300781 344.351562 823.902344 367.160156 807.796875 382.425781 C 803.816406 386.195312 798.691406 390.179688 787.960938 391.914062 C 785.003906 392.023438 782.289062 392.035156 779.476562 391.640625 C 769.753906 390.273438 764.273438 386.21875 760.558594 382.957031 C 743.40625 367.878906 743.742188 345.097656 761.238281 330.089844 C 765.136719 326.742188 770.339844 323.246094 780.132812 321.804688 Z M 785.746094 378.027344 C 792.273438 377.050781 795.492188 374.976562 798.082031 372.726562 C 808.78125 363.429688 808.949219 350.078125 798.164062 340.777344 C 795.996094 338.90625 792.777344 336.722656 787.332031 335.894531 C 785.246094 335.574219 783.382812 335.585938 781.203125 335.742188 C 772.308594 337.5625 768.679688 341.222656 766.085938 344.613281 C 759.425781 353.3125 759.609375 366.761719 772.304688 374.75 C 774.519531 376.140625 777.6875 377.507812 782.152344 377.949219 C 783.398438 378.074219 784.472656 378.058594 785.746094 378.027344 Z M 785.746094 378.027344 " fill-opacity="1" fill-rule="nonzero"/><path fill="#088bcb" d="M 671.117188 422.027344 C 684.140625 421.988281 699.398438 421.113281 709.570312 424.671875 C 726.988281 430.757812 730.363281 442.511719 730.714844 450.890625 C 731.078125 459.570312 727.269531 472.65625 709.882812 479.019531 C 702.929688 481.558594 694.742188 482.542969 684.984375 482.570312 L 684.984375 524.820312 L 671.117188 524.820312 Z M 706.929688 466.515625 C 717.96875 460.390625 717.859375 450.839844 713.832031 443.933594 C 712.125 441.003906 709.433594 437.664062 702.128906 435.914062 C 697.167969 434.722656 690.851562 434.359375 684.984375 434.347656 L 684.984375 470.316406 C 694.242188 469.792969 700.574219 469.132812 706.929688 466.515625 Z M 706.929688 466.515625 " fill-opacity="1" fill-rule="nonzero"/><path fill="#088bcb" d="M 948.320312 285.328125 L 962.320312 285.328125 L 962.320312 334.441406 C 964.945312 330.957031 968.882812 326.265625 975.46875 323.53125 C 977.886719 322.527344 981.101562 321.757812 984.898438 321.726562 C 987.859375 321.699219 990.367188 322.136719 992.441406 322.886719 C 1000.195312 325.675781 1003.648438 332.316406 1004.960938 336.082031 C 1007.339844 342.910156 1006.214844 350.046875 1006.191406 356.917969 L 1006.195312 390.121094 L 992.277344 390.121094 L 992.277344 350.609375 C 992.378906 346.222656 992.960938 338.480469 985.410156 334.90625 C 984.1875 334.324219 982.609375 333.902344 980.519531 333.875 C 978.160156 333.847656 975.941406 334.433594 974.371094 335.011719 C 967.414062 337.574219 964.828125 342.835938 963.574219 346.253906 C 961.492188 351.933594 962.308594 357.835938 962.304688 363.558594 L 962.320312 390.121094 L 948.316406 390.121094 Z M 948.320312 285.328125 " fill-opacity="1" fill-rule="nonzero"/><path fill="#088bcb" d="M 669.242188 287.332031 L 684.859375 287.328125 L 709.957031 328.53125 C 714.164062 322.839844 717.074219 316.9375 720.550781 311.179688 C 725.339844 303.242188 730.5625 295.304688 734.84375 287.328125 L 750.609375 287.328125 C 746.238281 293.878906 742.582031 300.507812 738.597656 307.089844 L 720.074219 337.820312 C 718.96875 339.480469 717.792969 341.148438 717.242188 342.851562 C 716.460938 345.253906 716.828125 347.753906 716.828125 350.175781 L 716.824219 362.171875 L 716.855469 390.121094 L 702.808594 390.121094 L 702.800781 358.242188 L 702.847656 349.179688 C 702.871094 347.320312 703.21875 345.382812 702.625 343.539062 C 700.96875 338.402344 695.761719 331.625 692.625 326.378906 C 684.832031 313.367188 676.558594 300.375 669.242188 287.332031 Z M 669.242188 287.332031 " fill-opacity="1" fill-rule="nonzero"/><path fill="#088bcb" d="M 956.363281 458.210938 L 972.464844 458.210938 C 975.207031 463.097656 978.859375 467.957031 982.089844 472.804688 C 986.828125 479.902344 991.367188 487.03125 996.40625 494.101562 C 1002.804688 482.203125 1007.234375 470.148438 1013.152344 458.210938 L 1027.621094 458.210938 C 1019.289062 478.117188 1009.433594 497.984375 1000.214844 517.839844 L 982.71875 555.980469 L 967.859375 555.980469 C 973.460938 545.246094 977.871094 534.402344 982.871094 523.625 L 987.347656 514.128906 C 988.191406 512.339844 989.5625 510.398438 989.4375 508.585938 C 989.21875 505.4375 981.945312 496.484375 979.523438 492.898438 Z M 956.363281 458.210938 " fill-opacity="1" fill-rule="nonzero"/><path fill="#088bcb" d="M 831.882812 323.519531 L 846.070312 323.519531 L 846.050781 351.664062 C 846.050781 358.273438 844.976562 365.125 848.132812 371.660156 C 849.046875 373.546875 850.707031 375.667969 854.3125 377.117188 C 855.839844 377.730469 858.222656 378.433594 860.652344 378.429688 C 862.824219 378.425781 864.597656 378.085938 866.136719 377.546875 C 871.820312 375.574219 873.414062 371.988281 874.453125 369.289062 C 876.703125 363.457031 875.769531 357.34375 875.773438 351.460938 L 875.757812 323.519531 L 889.683594 323.519531 L 889.683594 337.289062 L 889.703125 354.394531 C 889.707031 364.191406 891.46875 382.683594 872.246094 390.074219 C 869.347656 391.1875 865.648438 391.949219 861.339844 391.980469 C 856.609375 392.019531 852.566406 391.296875 849.332031 390.082031 C 828 382.074219 831.867188 358.710938 831.863281 348.140625 Z M 831.882812 323.519531 " fill-opacity="1" fill-rule="nonzero"/><path fill="#088bcb" d="M 1097.558594 282.929688 C 1098.300781 282.960938 1098.320312 282.953125 1099.148438 283.023438 C 1103.847656 283.421875 1106.796875 285.113281 1109.277344 286.472656 L 1109.277344 300.75 C 1108.054688 299.953125 1106.730469 299.128906 1105.246094 298.390625 C 1103.839844 297.695312 1101.574219 296.808594 1098.984375 296.777344 C 1097.785156 296.765625 1096.722656 296.96875 1095.890625 297.269531 C 1088.375 299.988281 1090.808594 318.964844 1090.828125 323.519531 L 1109.277344 323.519531 L 1109.277344 336.429688 L 1090.828125 336.429688 L 1090.828125 390.121094 L 1076.828125 390.121094 L 1076.828125 336.429688 L 1064.675781 336.429688 L 1064.675781 323.519531 L 1076.828125 323.519531 C 1076.796875 313.941406 1073.585938 293.839844 1087.078125 285.882812 C 1089.722656 284.324219 1092.609375 283.375 1097.558594 282.929688 Z M 1097.558594 282.929688 " fill-opacity="1" fill-rule="nonzero"/><path fill="#088bcb" d="M 923.363281 456.386719 C 923.539062 456.386719 923.714844 456.382812 923.894531 456.382812 L 924.773438 456.386719 C 925.90625 456.382812 927.058594 456.371094 928.1875 456.421875 C 935.703125 456.757812 941.0625 459.140625 945.453125 461.128906 L 945.453125 476.941406 C 942.074219 474.796875 937.90625 472.367188 932.089844 470.976562 C 929.480469 470.351562 926.417969 469.980469 923.289062 470.253906 C 919.625 470.574219 916.933594 471.703125 914.988281 472.796875 C 901.449219 480.402344 901.617188 493.621094 906.894531 502.285156 C 908.667969 505.199219 912.359375 510.332031 920.015625 511.96875 C 922.167969 512.425781 924.589844 512.53125 926.988281 512.28125 C 935.65625 511.375 941.308594 507.0625 945.453125 504.441406 L 945.453125 520.558594 C 941.40625 522.785156 936.378906 525.453125 929.074219 526.378906 C 925.617188 526.816406 922.0625 526.730469 918.773438 526.160156 C 909.039062 524.46875 903.523438 519.40625 900.179688 515.976562 C 886.039062 501.476562 885.667969 477.027344 904.390625 463.140625 C 908.675781 459.96875 913.832031 457.570312 923.363281 456.386719 Z M 923.363281 456.386719 " fill-opacity="1" fill-rule="nonzero"/><path fill="#088bcb" d="M 911.058594 304.171875 L 925.238281 304.171875 L 925.238281 323.519531 L 939.046875 323.519531 L 939.046875 336.429688 L 925.238281 336.429688 L 925.238281 389.5625 L 925.222656 389.851562 C 923.265625 390.46875 913.984375 390.136719 911.058594 390.121094 L 911.058594 336.429688 L 899.988281 336.429688 L 899.988281 323.460938 L 911.058594 323.460938 Z M 911.058594 304.171875 " fill-opacity="1" fill-rule="nonzero"/><path fill="#088bcb" d="M 825.085938 419.996094 L 839.222656 419.996094 L 839.222656 524.820312 L 825.078125 524.820312 Z M 825.085938 419.996094 " fill-opacity="1" fill-rule="nonzero"/><path fill="#00a796" d="M 328.070312 252.164062 C 329.523438 252.078125 331.078125 252.03125 332.523438 252.164062 C 337.105469 252.582031 340.472656 254.113281 342.648438 255.535156 C 355.105469 263.6875 354.738281 278.546875 347.535156 287.355469 C 345.03125 290.421875 341.488281 293.613281 333.308594 295.210938 C 331.839844 295.230469 330.253906 295.273438 328.820312 295.140625 C 324.527344 294.75 321.132812 293.199219 319.0625 291.878906 C 306.519531 283.871094 306.984375 269.121094 313.738281 260.40625 C 316.195312 257.234375 319.742188 253.871094 328.070312 252.164062 Z M 328.070312 252.164062 " fill-opacity="1" fill-rule="nonzero"/><path fill="#ec1c24" d="M 239.589844 337.398438 C 241.019531 337.359375 242.472656 337.332031 243.871094 337.476562 C 247.433594 337.84375 250.273438 339.15625 252.039062 340.253906 C 263.019531 347.070312 262.472656 360.445312 256.65625 367.824219 C 254.476562 370.589844 251.28125 373.496094 243.953125 374.953125 C 242.625 374.953125 241.148438 374.980469 239.871094 374.839844 C 236.363281 374.457031 233.457031 373.128906 231.707031 372.039062 C 220.875 365.316406 221.390625 352.265625 226.800781 344.957031 C 228.929688 342.078125 232.097656 338.972656 239.589844 337.398438 Z M 239.589844 337.398438 " fill-opacity="1" fill-rule="nonzero"/><path fill="#088bcb" d="M 860.777344 458.210938 L 874.609375 458.210938 L 874.609375 524.820312 L 860.777344 524.820312 Z M 860.777344 458.210938 " fill-opacity="1" fill-rule="nonzero"/><path fill="#f5851f" d="M 224.574219 406.980469 C 225.640625 406.960938 226.734375 406.941406 227.796875 406.972656 C 230.457031 407.054688 233.101562 408.058594 234.570312 408.789062 C 244.152344 413.546875 243.839844 424.046875 241.1875 429.578125 C 239.65625 432.769531 236.996094 436.488281 229.265625 438.441406 C 228.273438 438.453125 227.175781 438.484375 226.195312 438.4375 C 223.414062 438.296875 221.027344 437.417969 219.445312 436.640625 C 209.949219 431.960938 210.132812 421.714844 212.5625 416.246094 C 214.03125 412.945312 216.632812 409.03125 224.574219 406.980469 Z M 224.574219 406.980469 " fill-opacity="1" fill-rule="nonzero"/><path fill="#088bcb" d="M 238.429688 472.402344 C 239.109375 472.386719 239.789062 472.367188 240.46875 472.394531 C 242.980469 472.488281 244.898438 473.171875 246.332031 473.867188 C 254.136719 477.660156 253.921875 486.027344 251.898438 490.476562 C 250.6875 493.132812 248.546875 496.207031 242.210938 497.859375 C 241.585938 497.878906 240.847656 497.910156 240.214844 497.886719 C 237.769531 497.78125 236.03125 497.246094 234.554688 496.570312 C 227.15625 493.199219 226.929688 485.480469 228.148438 481.421875 C 229.109375 478.226562 231.183594 474.523438 238.429688 472.402344 Z M 238.429688 472.402344 " fill-opacity="1" fill-rule="nonzero"/><path fill="#088bcb" d="M 866.125 425.621094 C 867.085938 425.625 867.074219 425.617188 868.058594 425.667969 C 870.265625 425.773438 871.847656 426.40625 873.035156 427.039062 C 879.558594 430.527344 879.382812 437.144531 877.375 441.117188 C 876.257812 443.328125 874.414062 445.824219 869.050781 447.164062 C 868.886719 447.164062 868.71875 447.160156 868.550781 447.15625 C 866.082031 447.105469 864.691406 446.828125 863.113281 446.152344 C 856.101562 443.144531 856.09375 436.820312 857.320312 433.128906 C 858.199219 430.492188 860.058594 427.335938 866.125 425.621094 Z M 866.125 425.621094 " fill-opacity="1" fill-rule="nonzero"/><path fill="#7b2a8f" d="M 477.347656 539.535156 C 479.035156 539.554688 480.15625 539.613281 481.484375 540.046875 C 486.34375 541.628906 487 545.265625 487.082031 547.5 C 487.191406 550.378906 486.203125 554.070312 480.371094 556.222656 C 478.441406 556.199219 477.230469 556.191406 475.785156 555.664062 C 470.660156 553.789062 470.222656 549.734375 470.425781 547.246094 C 470.644531 544.625 471.847656 541.417969 477.347656 539.535156 Z M 477.347656 539.535156 " fill-opacity="1" fill-rule="nonzero"/><path fill="#36479c" d="M 381.695312 570.253906 C 383.644531 570.289062 384.707031 570.398438 386.078125 570.9375 C 390.914062 572.847656 391.296875 576.777344 391.113281 579.242188 C 390.917969 581.871094 389.714844 585.058594 384.210938 586.945312 C 384.039062 586.941406 383.871094 586.9375 383.699219 586.933594 C 381.523438 586.855469 380.347656 586.640625 379.027344 586.015625 C 373.730469 583.507812 373.855469 578.507812 375.054688 575.511719 C 375.816406 573.601562 377.210938 571.464844 381.695312 570.253906 Z M 381.695312 570.253906 " fill-opacity="1" fill-rule="nonzero"/><path fill="#02bbe1" d="M 434.382812 562 C 436.601562 562.164062 437.820312 562.433594 439.152344 563.109375 C 444.53125 565.84375 444.269531 571.074219 442.644531 574.234375 C 441.71875 576.03125 440.238281 577.816406 435.894531 578.898438 C 433.941406 578.753906 432.664062 578.460938 431.464844 577.886719 C 426.222656 575.386719 426.28125 570.539062 427.394531 567.558594 C 428.160156 565.507812 429.648438 563.316406 434.382812 562 Z M 434.382812 562 " fill-opacity="1" fill-rule="nonzero"/><g clip-path="url(#16dff7e9d9)"><path fill="#088bcb" d="M 1219 337.097656 C 1221.183594 333.058594 1224.132812 327.105469 1230.519531 323.730469 C 1232.28125 322.800781 1234.714844 321.945312 1237.917969 321.753906 C 1240.984375 321.574219 1243.128906 322.078125 1245.570312 322.671875 L 1245.570312 323.402344 C 1243.226562 327.003906 1242.429688 332.863281 1241.269531 336.726562 C 1239.390625 336.414062 1237.460938 336.140625 1235.554688 335.851562 C 1233.582031 336.09375 1231.878906 336.371094 1230.34375 336.898438 C 1224.109375 339.03125 1221.777344 343.273438 1220.59375 346.226562 C 1218.296875 351.964844 1219.183594 357.976562 1219.179688 363.765625 L 1219.203125 390.121094 L 1205.164062 390.121094 L 1205.164062 323.519531 L 1218.9375 323.519531 Z M 1219 337.097656 " fill-opacity="1" fill-rule="nonzero"/></g></svg>